<svg width="24" height="24" viewBox="0 0 24 24" fill="none" xmlns="http://www.w3.org/2000/svg">
<path d="M20.1271 9.81943H19.1927V3.76574C19.1927 3.45678 19.0059 3.20988 18.7564 3.08621C18.5074 2.96254 18.1958 2.96254 17.9463 3.14783C15.2674 5.24802 11.7781 6.42182 8.22696 6.42182H5.5481C3.05615 6.42182 1 8.27514 1 10.6222C1 12.7224 2.68232 14.452 4.86275 14.761L6.98098 19.703C7.23001 20.1973 7.60421 20.6294 8.16488 20.8147C8.4139 20.9384 8.72551 21 9.03711 21C9.34871 21 9.72248 20.9384 10.0341 20.8147C11.218 20.3205 11.7786 18.9614 11.3427 17.8497L10.0967 14.9463C12.9629 15.2553 15.7039 16.3054 17.9469 17.9734C18.0717 18.097 18.2586 18.1586 18.4454 18.1586C18.5702 18.1586 18.6945 18.1586 18.8192 18.097C19.0682 17.9734 19.2555 17.7264 19.2555 17.4175V11.3638H20.1899C20.6263 11.3638 21 10.9932 21 10.5606C20.9996 10.1284 20.5632 9.81946 20.1273 9.81946L20.1271 9.81943ZM9.90923 18.4675C10.034 18.7765 9.84708 19.2087 9.41074 19.3939C9.22386 19.5176 8.97439 19.5176 8.78752 19.3939C8.66278 19.3323 8.53849 19.2703 8.47591 19.085L6.60667 14.8225H8.35119L9.90923 18.4675ZM17.6973 15.9351C15.1427 14.3291 12.0901 13.4644 8.97489 13.3406H8.85016H8.35167H5.54809C3.86576 13.3406 2.5576 12.1668 2.5576 10.6846C2.5576 9.20192 3.92829 8.02855 5.54809 8.02855H8.22695C11.6538 8.02855 14.8937 7.04008 17.6348 5.31041L17.6352 15.935L17.6973 15.9351Z" fill="#333333" fill-opacity="0.5"/>
</svg>
