<svg width="8" height="7" viewBox="0 0 8 7" fill="none" xmlns="http://www.w3.org/2000/svg">
<g opacity="0.7">
<path d="M3.19818 5.98941C3.16297 5.95551 3.01246 5.8275 2.88865 5.70826C2.11 5.00918 0.835501 3.18551 0.446477 2.23101C0.383966 2.08605 0.251661 1.71956 0.243164 1.52375C0.243164 1.33612 0.286861 1.15726 0.375469 0.986583C0.499277 0.773821 0.694093 0.603144 0.924109 0.509622C1.08372 0.449418 1.56136 0.355896 1.56985 0.355896C2.0924 0.262374 2.94146 0.210938 3.87973 0.210938C4.7737 0.210938 5.58816 0.262374 6.11859 0.338945C6.12709 0.347713 6.72064 0.441235 6.92395 0.543524C7.29538 0.731152 7.526 1.09764 7.526 1.48985V1.52375C7.5169 1.77918 7.28627 2.31634 7.27778 2.31634C6.88815 3.21941 5.67616 5.001 4.8708 5.71703C4.8708 5.71703 4.66385 5.91868 4.53458 6.00636C4.34886 6.14313 4.11885 6.21094 3.88883 6.21094C3.63211 6.21094 3.39299 6.13437 3.19818 5.98941Z" fill="#333333"/>
</g>
</svg>
