<svg width="24" height="20" viewBox="0 0 24 20" fill="none" xmlns="http://www.w3.org/2000/svg">
<path d="M9.04602 10.2228V18.1253C9.04603 18.2319 9.07728 18.3367 9.13682 18.4298C9.19635 18.5229 9.28218 18.6011 9.38616 18.6571C9.49014 18.7131 9.60881 18.745 9.73089 18.7497C9.85297 18.7544 9.9744 18.7318 10.0837 18.6841L14.3832 16.8091C14.5021 16.7571 14.6021 16.6773 14.6719 16.5787C14.7418 16.48 14.7788 16.3663 14.7788 16.2503V10.2228L21.0662 3.52157C21.1259 3.45805 21.1706 3.38489 21.1978 3.30629C21.2251 3.22768 21.2343 3.14517 21.225 3.06345C21.2157 2.98174 21.188 2.90242 21.1435 2.83003C21.0991 2.75765 21.0387 2.69361 20.9659 2.64157C20.893 2.58954 20.8092 2.55052 20.719 2.52676C20.6289 2.50299 20.5343 2.49494 20.4406 2.50307C20.3469 2.51119 20.256 2.53533 20.173 2.57411C20.09 2.61289 20.0166 2.66555 19.9569 2.72907L13.5075 9.60408C13.4027 9.71587 13.3455 9.85589 13.3456 10.0003V15.8641L10.4792 17.1141V10.0003C10.4793 9.85589 10.4221 9.71587 10.3173 9.60408L4.82528 3.75032H16.212C16.402 3.75032 16.5843 3.68447 16.7187 3.56726C16.8531 3.45005 16.9286 3.29108 16.9286 3.12532C16.9286 2.95956 16.8531 2.80059 16.7187 2.68338C16.5843 2.56617 16.402 2.50032 16.212 2.50032H3.31326C3.17751 2.50024 3.04453 2.5338 2.92979 2.59708C2.81505 2.66036 2.72329 2.75077 2.66517 2.85777C2.60706 2.96477 2.58499 3.08397 2.60153 3.20149C2.61808 3.31901 2.67255 3.43001 2.75862 3.52157L9.04602 10.2228Z" fill="#3E5D58"/>
</svg>
