<svg width="222" height="319" viewBox="0 0 222 319" fill="none" xmlns="http://www.w3.org/2000/svg">
<path d="M53.8278 -75.366C68.3162 -140.719 75.5604 -173.395 100.364 -189.197C125.167 -204.998 157.844 -197.754 223.196 -183.266L396.977 -144.739C461.409 -130.455 493.625 -123.313 509.204 -98.8588C524.783 -74.4047 517.641 -42.1886 503.357 22.2436L464.398 197.977C450.113 262.409 442.971 294.625 418.517 310.204C394.063 325.783 361.847 318.641 297.415 304.357L121.681 265.398C57.2492 251.113 25.0331 243.971 9.45412 219.517C-6.12486 195.063 1.01729 162.847 15.3016 98.4147L53.8278 -75.366Z" fill="#EECCDF" fill-opacity="0.5"/>
</svg>
