<svg width="649" height="544" viewBox="0 0 649 544" fill="none" xmlns="http://www.w3.org/2000/svg">
<g clip-path="url(#clip0_1023_234)">
<path d="M430.798 322.991C430.798 322.991 416.79 369.849 416.79 404.733C416.79 439.618 439.803 440.624 439.803 440.624L449.993 494.959H472.024C472.024 494.959 464.52 521.886 481.029 534.588C489.126 540.819 509.869 542.194 528.908 541.973C554.88 541.747 579.974 532.58 599.938 516.024C605.737 511.178 610.685 506.378 613.084 502.464C613.084 502.464 622.089 512.932 618.337 517.409C614.585 521.886 603.273 529.114 609.276 537.339C615.28 545.564 649.252 528.108 648.502 515.415C647.751 502.722 630.344 465.825 617.586 465.825C604.829 465.825 604.042 480.023 604.042 480.023C604.042 480.023 568.782 487.5 560.499 494.977L548.456 480.023L580.723 465.068C580.723 465.068 550.707 427.682 544.703 423.196L561.963 417.214C561.963 417.214 531.946 385.071 523.692 370.135C515.437 355.199 513.251 328.973 513.251 328.973C513.251 328.973 568.643 359.999 578.398 363.922C578.398 363.922 572.413 374.427 585.235 386.391C591.646 392.373 606.386 400.921 614.65 393.72C622.914 386.52 622.061 369.046 614.65 361.476C606.877 353.546 593.619 350.177 593.619 350.177C593.619 350.177 553.041 302.055 530.529 294.578C516.48 290.093 501.598 288.815 486.986 290.839L485.485 278.885C485.485 278.885 565.78 273.651 584.54 216.824C603.301 159.997 567.281 115.142 514.752 112.152C462.222 109.161 420.959 139.07 411.917 158.51C416.716 156.121 422.03 154.939 427.394 155.07C432.757 155.2 438.007 156.638 442.684 159.258C442.684 159.258 431.428 193.644 435.18 207.851C435.18 207.851 413.418 230.283 426.925 254.93C440.433 279.577 453.94 269.884 456.191 275.118C458.443 280.353 462.297 287.091 462.297 287.091C462.297 287.091 417.133 275.875 404.45 263.912C391.767 251.948 356.497 219.796 356.497 219.796C356.497 219.796 349.743 188.41 327.231 195.869C304.718 203.328 324.98 230.56 341.489 236.994C341.461 237.012 396.232 314.019 430.798 322.991Z" fill="#A2B062"/>
<path d="M219.9 419.438C219.9 419.438 205.67 459.815 197.388 464.329C189.105 468.843 173.374 480.779 177.126 492.022C180.878 503.266 193.033 512.331 198.231 520.427C202.335 526.842 220.039 543.615 231.731 543.837C243.422 544.059 235.288 522.605 227.404 514.454C222.188 509.072 225.903 492.77 220.65 489.032C220.65 489.032 245.414 463.609 253.659 448.654C261.905 433.7 267.917 419.493 267.917 419.493L324.949 415.007C324.949 415.007 309.2 332.767 294.182 303.605C279.164 274.444 256.661 240.833 256.661 240.833L285.177 204.195L278.423 194.475C288.269 180.425 296.571 165.363 303.187 149.547C313.693 124.115 312.21 76.2604 283.676 85.233C255.142 94.2057 269.418 146.546 269.418 146.546C269.418 146.546 243.163 201.121 228.155 208.626C213.146 216.131 213.897 208.626 213.897 208.626C213.897 208.626 238.66 174.231 225.153 148.817C211.645 123.404 196.637 136.106 196.637 136.106C196.637 136.106 180.499 107.692 176.561 105.449C176.561 105.449 181.629 89.7563 189.133 84.1622C189.133 84.1622 141.106 47.1361 94.5898 92.738C48.0732 138.34 50.3152 173.455 50.3152 173.455C50.3152 173.455 36.0573 172.707 29.3036 180.185C22.5498 187.662 29.3036 198.13 29.3036 198.13C29.3036 198.13 -9.70879 221.31 2.29786 269.164C14.3045 317.018 45.8405 304.298 63.0723 316.243C80.3041 328.188 84.8344 343.161 84.8344 343.161C84.8344 343.161 116.333 313.252 96.8781 282.604C77.4228 251.957 51.1027 252.695 54.1044 222.039C54.1044 222.039 70.6135 239.236 78.1177 224.282C78.1177 224.282 113.387 246.714 135.149 245.218C156.911 243.723 178.692 231.759 178.692 231.759C164.512 251.593 153.603 273.557 146.378 296.82C135.131 334.207 135.881 338.693 135.881 338.693C135.881 338.693 111.117 353.647 119.372 372.34C127.627 391.034 154.438 384.341 157.634 352.152C158.181 346.59 157.171 340.985 154.716 335.961C154.716 335.961 185.381 297.568 193.626 292.334C193.626 292.334 193.626 318.504 182.37 353.647C171.114 388.79 171.66 425.42 171.66 425.42L219.9 419.438Z" fill="#455D58"/>
<path d="M374.462 98.6995C401.815 98.6995 423.989 76.6049 423.989 49.3498C423.989 22.0946 401.815 0 374.462 0C347.109 0 324.934 22.0946 324.934 49.3498C324.934 76.6049 347.109 98.6995 374.462 98.6995Z" fill="#272B66"/>
</g>
<defs>
<clipPath id="clip0_1023_234">
<rect width="648.508" height="543.78" fill="white"/>
</clipPath>
</defs>
</svg>
