<svg width="89" height="106" viewBox="0 0 89 106" fill="none" xmlns="http://www.w3.org/2000/svg">
<g clip-path="url(#clip0_344_2923)">
<path d="M28.3464 45.9777C27.7297 46.0978 27.1398 46.087 26.5505 46.2613C25.2949 45.9777 23.1986 46.0432 22.1175 46.8232C19.8576 46.4798 17.57 46.8722 15.2719 47.1232C14.7367 46.7742 14.1912 46.436 13.607 46.1962C12.548 45.7601 11.4127 45.46 10.3151 45.1383C10.3094 45.1383 10.2986 45.1327 10.2934 45.1327C9.6163 44.8383 8.93404 44.5599 8.26263 44.2382C7.4111 43.8237 6.80523 43.1638 6.02965 42.6838C5.9971 42.4658 5.89337 42.2967 5.62559 42.2256C5.32005 42.1492 4.93769 42.2581 4.63214 42.2962C4.26628 42.34 3.84615 42.3452 3.49114 42.438C3.28368 42.4926 3.08707 42.6071 3.22379 42.8525C3.32187 43.0381 3.58966 43.0927 3.86786 43.0979C3.55667 43.1851 3.24549 43.2505 2.92345 43.3C2.6778 43.3381 2.02809 43.2726 1.85883 43.5562C1.71691 43.7908 1.88617 43.9052 2.13182 43.9542C1.99554 43.9815 1.85319 44.0141 1.71691 44.047C1.53679 44.096 1.26944 44.129 1.21476 44.3522C1.17092 44.5487 1.2638 44.6466 1.41657 44.6904C1.25295 44.7776 1.11624 44.8977 1.09454 45.0668C1.0672 45.2684 1.20912 45.3395 1.38923 45.356C1.0889 45.5467 0.799846 45.8143 1.07284 45.9942C1.30764 46.1524 1.98469 45.907 2.20821 45.8307C2.53588 45.7163 2.84707 45.558 3.1474 45.3781C3.78062 45.2363 4.38129 44.9853 4.97067 44.7182C6.19892 45.6616 7.78218 46.3215 9.11415 47.0578C10.1241 47.614 11.2104 48.143 12.3076 48.574C12.3076 48.574 12.3132 48.574 12.3184 48.5796C15.8725 50.3577 20.1141 50.1994 24.0666 50.085C24.7215 50.3902 25.3986 50.7067 25.8574 51.2413C26.3322 53.6954 26.9272 56.1004 27.4567 58.5384C25.3821 64.3409 23.9082 70.3182 23.1114 76.4264C22.7294 79.3821 22.4343 82.4037 22.4343 85.3867C22.4287 86.7008 22.2868 87.0828 23.6027 87.4535C25.6226 88.0206 28.1993 87.7479 30.5247 87.4644C30.2517 90.6546 30.4756 93.769 31.2178 96.8556C31.2395 97.2046 31.2451 97.5536 31.2286 97.9027C31.1796 98.759 30.7812 99.5498 30.6445 100.362C29.4709 101.278 28.2644 101.993 26.7631 102.331C26.7358 102.337 26.7084 102.342 26.6811 102.348C26.6429 102.353 26.5991 102.359 26.5557 102.364C26.534 102.369 26.5066 102.375 26.4845 102.375C26.419 102.381 26.3534 102.386 26.2935 102.397C25.4967 102.479 24.2572 102.511 23.8644 102.893C23.3184 103.422 23.5094 104.049 24.0172 104.464C25.087 105.325 27.724 104.916 28.9249 104.834C29.9132 104.769 31.3979 104.813 32.479 104.371C32.7464 104.376 33.0085 104.387 33.2759 104.392C33.6417 104.403 34.3839 104.578 34.7007 104.436C34.8535 104.365 34.919 104.311 34.9572 104.229C35.2467 104.616 35.5522 104.807 36.1039 104.845C36.7045 104.889 37.3156 104.851 37.9163 104.834C38.3312 104.823 38.9588 104.916 39.3355 104.731C39.7561 104.518 39.7561 104.158 39.7122 103.716C39.6085 102.729 39.2483 101.758 38.8442 100.859C38.9644 99.2225 39.079 97.5866 39.1936 95.9503C40.171 92.8689 40.5585 89.6621 40.9678 86.4554C41.552 86.4064 42.1362 86.3683 42.7203 86.341C43.6265 86.292 47.0001 86.8374 47.6064 86.0136C48.1142 85.9265 48.622 85.8064 49.1293 85.6646C49.97 85.4248 50.0737 85.7409 50.2977 84.9722C50.5269 84.1922 49.7027 82.2289 49.5061 81.4762C49.151 80.1239 48.7748 78.7768 48.3924 77.4297C48.1086 76.4264 47.7535 75.4443 47.3825 74.4684C46.9129 72.2649 46.1707 70.1326 45.4333 68.3493C44.4833 66.0479 43.3753 63.6099 41.9179 61.576C40.7169 59.8963 39.401 58.4781 38.2765 56.8093C38.5165 55.6369 38.7622 54.4641 38.997 53.2917C39.2973 51.8136 39.5703 50.4123 39.0681 49.0214V49.0158C39.0846 48.8957 39.0955 48.7812 39.112 48.6884C39.194 48.1538 39.2539 47.6249 39.3468 47.1015C40.3459 46.0597 41.5524 45.1817 42.6713 44.2712C43.4903 43.6056 44.0853 42.8751 44.653 42.0677C45.876 41.0259 47.2462 40.3607 48.1415 38.9755C48.9058 37.7975 49.49 36.5106 49.954 35.1908C50.7239 33.7782 51.5589 32.3713 52.1648 30.8824C52.7928 30.6916 53.4586 30.6916 54.1027 30.5932C54.2776 30.5659 54.452 30.5333 54.6269 30.5004C55.495 30.4184 56.3686 30.4076 57.231 30.2823C57.7279 30.206 58.6615 30.124 59.0052 29.6987C59.5182 29.0661 58.454 29.1697 57.8152 29.2898C58.1971 29.0882 58.6012 28.8207 58.3885 28.4444C58.2848 28.2588 58.0882 28.2423 57.908 28.3026C57.7062 28.3624 57.5096 28.4552 57.313 28.548C57.4111 28.4444 57.4879 28.3407 57.4931 28.2319C57.504 28.003 57.3182 27.9375 57.1273 27.9484C56.734 27.9648 56.3413 28.3139 55.9971 28.4773C55.8608 28.5428 55.7241 28.6083 55.5878 28.6737C54.1903 28.6247 52.3067 28.1938 51.1931 29.1099C50.6688 29.5352 50.3142 30.1626 50.0082 30.8386C50.0026 30.8386 50.0026 30.8442 50.0026 30.8442C49.9752 30.888 49.9427 30.9314 49.9153 30.9751C49.7461 31.188 49.5877 31.4113 49.4566 31.6515C49.3967 31.766 49.3255 31.8753 49.26 31.9897C49.2383 32.0222 49.2161 32.0552 49.1944 32.0877C47.3221 34.3236 46.05 37.0452 44.1391 39.2755C43.3201 39.6683 42.5341 40.1045 41.8024 40.666C40.9235 41.3315 40.1102 42.0729 39.1983 42.7055C38.2978 43.1035 37.3369 43.5402 36.5726 44.1615C35.9993 44.2976 35.4316 44.4177 34.8531 44.527C34.8531 44.5213 34.8531 44.5105 34.8474 44.5053V44.4997C39.5152 43.9707 36.1959 30.1947 31.2499 32.5286C29.5959 32.3869 28.0838 32.8942 27.0574 34.3449C25.8343 36.0792 26.3256 38.4188 26.4242 40.3768C26.4624 41.162 25.9164 45.3126 26.386 45.7761C26.9866 46.3705 28.5313 45.4977 29.503 45.0837C29.4592 45.2471 29.4375 45.4327 29.4375 45.6235C29.0825 45.7709 28.7222 45.907 28.3455 45.9777H28.3464ZM36.4203 86.8587C36.1963 89.5091 36.0218 92.0451 36.1364 94.6357C35.7324 96.6154 35.6451 98.7369 35.5579 100.7V100.711C35.383 101.076 35.2523 101.452 35.1647 101.845C35.159 101.84 35.1538 101.829 35.1482 101.823C34.8695 101.404 34.6078 101.098 34.4386 100.684C34.5861 100.127 34.3895 99.0092 34.3895 98.4858C34.3839 97.9022 34.3787 97.3243 34.373 96.7463C34.8153 93.4906 35.1373 90.2674 35.2684 86.9731C35.656 86.935 36.0383 86.8968 36.4203 86.8587Z" fill="#AA0061"/>
</g>
<g clip-path="url(#clip1_344_2923)">
<path d="M58.6118 35.767C58.4885 35.3356 58.2597 33.9199 58.6367 33.663C59.0014 33.4145 58.7186 32.6879 59.4879 32.2683C60.0229 31.9762 60.145 31.1784 60.1133 30.8832C60.0398 30.2033 59.1557 26.9163 59.1557 26.9163C58.9367 25.5783 59.0745 23.1438 59.0745 22.6592L59.1962 19.9104C59.1962 19.9104 59.3543 17.0399 59.1113 17.0277C58.9635 17.0204 59.0558 17.0422 58.8475 17.0449C58.6091 17.048 58.3909 16.7256 58.1911 16.5208C57.9179 16.2413 57.5669 16.1031 57.4211 15.86C57.3166 15.6854 57.2148 15.4305 56.971 15.2276C56.8374 15.1162 56.6621 14.9022 56.594 14.8382C56.4386 14.6928 56.4615 14.7398 56.3758 14.6736C56.2526 14.5779 56.4347 14.3398 56.6426 14.3639C56.7494 14.3765 56.9178 14.4297 57.0437 14.5343C57.2397 14.697 57.4417 14.9776 57.6033 15.179C57.7609 15.3761 58.061 15.5545 58.1827 15.5641C58.1827 15.5641 57.9952 15.3478 57.8746 15.1342C57.8314 15.058 57.6936 14.7498 57.6098 14.5335C57.5344 14.339 57.5045 13.9661 57.5504 13.8612C57.6071 13.7315 57.7839 13.7338 57.8746 13.764C58.0449 13.8207 57.9745 14.1855 58.1341 14.5668C58.3205 15.0128 58.337 14.9512 58.4663 15.1751C58.6011 15.4079 58.7419 15.6697 59.0416 15.6483C59.2039 15.6368 59.1143 14.9665 59.1109 14.8995C59.0979 14.6399 59.05 14.3765 59.05 14.3765L58.9042 13.9347C58.9042 13.9347 58.7205 13.4891 59.0795 13.3861C59.3397 13.3115 59.4151 13.8536 59.4151 13.8536C59.4151 13.8536 59.4814 14.1009 59.5487 14.3038C59.5962 14.4462 59.6746 14.6372 59.6704 14.8267C59.6651 15.0744 59.7401 15.3597 59.8182 15.3907C60.0524 15.4837 60.1163 15.4175 60.323 15.4052C60.5863 15.3899 60.5986 14.6893 60.5963 14.5511C60.5894 14.1824 60.5837 13.8333 60.6162 13.5488C60.638 13.357 60.5067 12.9539 60.85 12.9539C61.1027 12.9539 61.0782 13.3467 61.0326 13.8662C60.9997 14.2379 61.0391 14.3639 61.0571 14.6445C61.0893 15.1552 60.966 15.442 61.0694 15.5932C61.1727 15.7448 61.6856 15.5488 61.8356 15.4714C62.0909 15.3397 62.5261 15.1809 62.6853 14.9079C62.8445 14.6346 63.2284 13.9845 63.4381 13.8884C63.8274 13.71 63.775 14.205 63.6953 14.3294C63.5748 14.517 63.5974 14.3784 63.4071 14.8248C63.2801 15.1231 63.295 15.1671 63.1251 15.4106C63.0187 15.5626 62.7848 15.7972 62.4928 16.0794C62.2187 16.3439 62.1403 16.8458 61.7147 17.028C61.4376 17.1467 61.402 17.2382 61.3656 17.6417C61.3047 18.3228 61.1815 19.6865 61.2971 20.4621C61.4127 21.2377 62.2049 26.5599 62.2049 26.5599C62.2049 26.5599 63.0481 29.7711 63.1779 30.1926C63.3076 30.6141 63.7696 30.3549 64.0857 30.7764C64.4019 31.1979 64.475 31.9441 64.475 31.9441V33.436C64.475 33.8494 64.994 34.6687 64.994 34.6687C64.994 34.6687 65.3714 35.6453 65.4977 36.0132C65.6707 36.5163 66.4208 37.669 66.9314 37.0124C67.0979 36.7984 67.2556 36.0312 66.9395 36.2257C66.8445 36.2843 66.7094 36.0768 66.3477 35.5282C65.986 34.9799 66.0071 34.2147 66.2245 34.1454C66.5988 34.0263 66.6245 34.2101 66.5908 33.8739C66.528 33.2461 66.639 32.5662 66.7538 31.9146C66.8587 31.3189 67.4887 30.1891 68.1715 29.5196C69.1375 28.5728 70.306 28.0231 71.7111 28.0878C73.8246 28.185 75.6851 29.5912 76.2837 31.0612C76.6255 31.9004 76.7747 32.9938 76.4402 33.9712C76.1283 34.8827 75.9538 35.1388 75.4918 35.6499C75.3793 35.7743 76.0269 35.6013 75.9783 36.0392C75.9021 36.7253 75.3257 37.5817 75.0459 37.8152C74.6567 38.1395 74.4802 37.7088 74.2027 37.7505C73.9252 37.7919 73.8135 38.0101 73.8135 38.0101C73.8135 38.0101 73.3167 38.7535 73.0231 39.0319C72.7296 39.3102 72.2592 39.6861 72.3258 39.9687C72.454 40.5127 72.8409 40.613 73.4246 40.7347C73.6125 40.7738 74.623 40.7673 74.9487 40.7673C75.5649 40.7673 75.5324 40.9943 75.9863 41.2538C76.2561 41.4081 76.573 41.5413 76.7644 42C77.1357 42.8893 77.9616 44.2097 78.1913 44.4976C78.8779 45.359 79.4566 46.4167 79.829 46.7843C81.0932 48.0327 82.0072 49.1146 83.0165 50.2612C83.3847 50.6792 83.9385 51.4219 83.6717 51.6333C82.3421 52.6876 82.8615 52.4824 82.8615 52.4824C83.5068 52.456 83.2974 52.4632 83.6629 52.4468C84.4422 52.4119 84.2474 52.1198 84.8311 52.1443C85.4147 52.1688 85.4228 52.5743 85.6092 52.8013C85.7956 53.0283 86.0359 52.6681 86.2981 52.8985C86.6062 53.1696 86.3172 53.1611 86.6108 53.5118C86.8171 53.758 86.9916 53.4862 87.2224 53.6772C87.3698 53.7993 87.2308 54.0914 87.3682 54.5041C87.4329 54.6986 87.8643 54.6014 87.8547 55.104C87.8471 55.5087 88.0633 55.8904 88.0342 56.3444C88.0224 56.5309 87.5692 56.5802 87.3108 56.7161C87.0513 56.8528 86.731 57.2617 86.5737 56.9527C86.4451 56.6997 86.7578 56.4987 86.979 56.3203C87.1378 56.1924 87.3545 56.1228 87.4329 56.0607C87.5466 55.9715 87.5125 55.6909 87.3924 55.6714C87.2488 55.6484 86.8167 55.5742 86.7034 55.7526C86.7034 55.7526 86.4891 55.9669 86.452 56.0447C86.3628 56.2311 86.1684 56.3042 85.9816 56.1986C85.8511 56.1247 85.9134 55.9398 85.7271 55.7939C85.5629 55.6653 85.2073 55.6431 85.0006 55.6067C84.7124 55.5558 84.5291 55.581 84.2531 55.6297C83.9921 55.6756 83.6484 55.6289 83.0551 55.6718C82.2786 55.7281 81.3041 55.4528 80.9393 55.3069C80.7855 55.2453 80.6569 55.547 80.5746 55.6963C80.2898 56.2116 80.3316 56.3773 80.0162 56.1055C80.0162 56.1055 79.2855 55.4532 78.9694 54.7476C78.8898 54.57 77.7209 52.7527 76.813 52.8177C76.3652 52.8499 76.0284 53.4582 75.9779 53.799C75.8998 54.3276 76.0445 54.9272 76.0831 55.364C76.2202 56.9114 76.3932 58.1614 76.4724 58.8734C76.5795 59.8378 76.5371 63.7327 76.4724 64.8353C76.4077 65.9379 76.5371 70.2846 76.5371 71.0629C76.5371 71.8412 76.9183 74.485 76.7966 74.8254C76.6748 75.1661 76.2366 75.4808 76.2366 75.4808L76.4398 77.542C76.4398 77.542 76.4643 78.7096 76.6588 79.2934C76.8532 79.8773 77.7695 82.9342 77.7695 82.9342C77.7695 82.9342 78.1909 83.7125 78.4829 85.1723C78.7772 86.6435 78.6701 87.5435 78.7749 88.4401C78.8584 89.1564 79.0524 90.0526 79.0344 91.043C79.0264 91.4879 79.4237 93.3136 79.2614 93.5732C79.0991 93.8327 78.8565 93.5517 78.8565 93.5517L78.9043 94.4767C78.9043 94.4767 79.1719 94.5188 79.1106 95.1007C79.0735 95.4529 78.8607 96.1596 78.8396 96.5899C78.8159 97.078 78.9778 98.3337 79.1638 98.2767C79.3746 98.2119 79.5274 98.3711 79.6223 98.7545C79.6878 99.0182 79.7475 99.8092 79.78 100.223C79.8386 100.967 79.9909 101.553 79.9909 101.553C79.9909 101.553 80.3557 103.414 80.3071 103.87C80.2585 104.326 79.5833 104.884 78.7991 104.934C78.4328 104.958 78.3371 105.105 77.8261 104.886C77.3156 104.667 76.6343 103.888 76.6343 103.888C76.6343 103.888 76.0345 103.272 75.7264 102.688C75.4183 102.104 75.1102 100.969 75.1102 100.969C75.1102 100.969 74.8741 99.6017 74.8832 98.9987C74.8924 98.3958 74.486 98.6825 74.3727 98.3418C74.259 98.0011 74.0558 97.034 74.1377 96.3954C74.2066 95.8576 74.3658 95.763 74.5591 95.6493C75.1102 95.325 75.8604 95.5096 76.2056 95.3155C76.539 95.1275 76.5853 94.7588 76.4108 93.9128C76.3055 93.4024 75.9055 93.9687 75.8565 93.3791C75.7593 92.2114 75.4352 90.7195 75.4352 90.7195C75.4352 90.7195 74.6616 89.0787 74.0734 87.3785C74.0064 87.1848 73.4085 84.2324 72.8735 82.9671C72.3384 81.7022 71.8684 80.9481 71.6495 80.5101C71.2656 79.7421 71.2223 77.5764 71.2602 76.7637C71.3111 75.6699 70.7022 75.1466 70.6279 75.1095C70.3684 74.9797 67.2958 74.3066 67.2958 74.3066C67.2958 74.3066 67.5794 79.1105 67.4699 80.0817C67.3605 81.0533 66.0067 83.5506 66.0067 83.5506L65.2041 87.0049C65.2041 87.0049 64.4095 91.8784 64.2476 92.1785L63.7922 92.2141C63.7922 92.2141 63.8599 93.0525 63.8259 93.5732C63.7864 94.1781 63.6904 94.6467 63.7994 94.8208C64.0023 95.1451 64.2557 94.9357 64.2557 94.9357C64.2557 94.9357 65.0016 95.0816 65.3825 95.325C65.7637 95.5681 65.8529 95.6818 65.9661 96.2331C66.0794 96.7844 65.5447 98.2928 65.4958 98.4386C65.4468 98.5845 65.0579 98.39 65.0579 98.39C65.0579 98.39 64.4662 101.183 64.5473 100.823C64.6285 100.462 64.1225 102.608 64.0854 102.939C64.0482 103.27 63.8909 103.766 63.4286 104.155C62.9662 104.544 61.5072 104.872 60.7777 104.781C60.0482 104.691 59.6429 104.131 59.5778 103.936C59.5131 103.742 59.019 103.183 59.1889 102.623C59.3593 102.064 59.6459 101.387 59.9747 100.92C60.2204 100.571 60.4853 97.7572 60.4853 97.7572L60.9959 97.7086L60.9786 96.0681L61.5225 92.4055L60.9469 92.4542L60.744 88.5133L61.0196 84.4751L61.6519 81.8642C61.6519 81.8642 62.195 77.6794 62.2115 76.4961C62.2256 75.4471 61.9194 74.5011 61.9194 74.5011C61.9194 74.5011 61.1168 74.258 60.971 74.039C60.8252 73.8201 61.1654 72.255 60.971 71.9063C60.7766 71.5575 57.8497 70.3657 57.5987 69.8305C57.3472 69.2953 58.7821 64.0896 58.7821 64.0896L59.8764 59.8079L60.9465 52.8748L61.8789 45.8279C61.8789 45.8279 61.8463 43.9222 61.7005 43.2898C61.5547 42.6573 61.5076 42.781 61.0357 41.8384C60.5638 40.8955 60.6384 40.76 60.1278 39.4706C59.6172 38.1812 58.9279 35.87 58.9279 35.87C58.9279 35.87 58.6788 36.0052 58.611 35.7682L58.6118 35.767Z" fill="#9EB356"/>
<path d="M63.9278 10.3901C66.0806 8.23681 66.0806 4.74555 63.9278 2.59221C61.775 0.438876 58.2846 0.438876 56.1318 2.59221C53.979 4.74555 53.979 8.23681 56.1318 10.3901C58.2846 12.5435 61.775 12.5435 63.9278 10.3901Z" fill="#9EB356"/>
</g>
<defs>
<clipPath id="clip0_344_2923">
<rect width="58.0487" height="77.0262" fill="white" transform="translate(0.963501 28.0479)"/>
</clipPath>
<clipPath id="clip1_344_2923">
<rect width="33.5193" height="104.025" fill="white" transform="translate(54.5172 0.977142)"/>
</clipPath>
</defs>
</svg>
