<svg width="24" height="24" viewBox="0 0 24 24" fill="none" xmlns="http://www.w3.org/2000/svg">
<path d="M19.8946 16.6721C19.8946 16.755 19.8616 16.8343 19.803 16.893C19.7444 16.9516 19.665 16.9845 19.582 16.9845H15.832C14.8175 16.9823 13.8298 17.3115 13.0196 17.9221V7.92198C13.0196 7.17604 13.3158 6.46058 13.8434 5.93306C14.3707 5.40576 15.0861 5.10928 15.832 5.10928H18.0195V3.23438H15.832C14.3567 3.23438 12.9673 3.92908 12.0821 5.10928C11.1968 3.92914 9.80738 3.23438 8.33209 3.23438H2.39453V16.672C2.39453 17.2521 2.62516 17.8086 3.03539 18.2188C3.44564 18.6291 4.00191 18.8595 4.58222 18.8595H8.3322C9.07813 18.8595 9.7936 19.1557 10.3209 19.6832C10.8484 20.2106 11.1447 20.926 11.1447 21.6719H13.0198C13.0198 20.926 13.316 20.2105 13.8436 19.6832C14.3709 19.1557 15.0863 18.8595 15.8323 18.8595H19.5823C20.1625 18.8595 20.7188 18.6291 21.1291 18.2188C21.5393 17.8086 21.7699 17.2521 21.7699 16.672V13.2344H19.8948L19.8946 16.6721ZM8.33195 16.9845H4.58197C4.40932 16.9845 4.26938 16.8446 4.26938 16.6721V5.10953H8.33197C9.07791 5.10953 9.79337 5.40599 10.3207 5.93331C10.8482 6.46083 11.1444 7.17623 11.1444 7.92222V17.9223C10.3338 17.3124 9.34649 16.9832 8.33203 16.9848L8.33195 16.9845Z" fill="#455D58"/>
<path d="M19.8945 5.42188H21.7697V11.0469H19.8945V5.42188Z" fill="#455D58"/>
<path d="M21.7697 2.60944C21.7697 3.12715 21.3498 3.54678 20.8321 3.54678C20.3144 3.54678 19.8945 3.12716 19.8945 2.60944C19.8945 2.09151 20.3144 1.67188 20.8321 1.67188C21.3498 1.67188 21.7697 2.09149 21.7697 2.60944Z" fill="#455D58"/>
</svg>
