<svg width="24" height="24" viewBox="0 0 24 24" fill="none" xmlns="http://www.w3.org/2000/svg">
<path d="M10.7073 21.9997C11.249 21.9882 11.7689 21.8003 12.175 21.4692C12.5811 21.1381 12.8471 20.6851 12.9262 20.1904H8.40234C8.48359 20.6986 8.76212 21.1621 9.1861 21.495C9.61008 21.8278 10.1507 22.0072 10.7073 21.9997V21.9997Z" fill="#455C58"/>
<path d="M18.4518 17.5965C17.946 17.1456 17.5032 16.6287 17.1353 16.0597C16.7336 15.2743 16.4929 14.4166 16.4272 13.5369V10.9458C16.4251 10.6311 16.397 10.3171 16.3433 10.007C15.9304 9.92447 15.5337 9.77569 15.1684 9.56641C15.3076 10.0148 15.3784 10.4816 15.3782 10.9511V13.5421C15.4425 14.6153 15.7377 15.6619 16.2436 16.6104C16.6057 17.1842 17.0354 17.7125 17.5234 18.1839H4.09096C4.57896 17.7125 5.00862 17.1842 5.37074 16.6104C5.87668 15.6619 6.17188 14.6153 6.23616 13.5421V10.9458C6.2334 10.3388 6.3504 9.73724 6.58047 9.17551C6.81053 8.61378 7.14914 8.10295 7.5769 7.67227C8.00466 7.24158 8.51317 6.89951 9.07332 6.66562C9.63347 6.43174 10.2343 6.31064 10.8413 6.30927C11.7297 6.30998 12.5981 6.5727 13.3379 7.06455C13.2563 6.76505 13.2106 6.45695 13.2015 6.14668V5.81624C12.6539 5.54684 12.0655 5.36962 11.4602 5.29174V4.63087C11.4602 4.44516 11.3864 4.26706 11.2551 4.13575C11.1238 4.00444 10.9457 3.93066 10.76 3.93066C10.5743 3.93066 10.3962 4.00444 10.2649 4.13575C10.1335 4.26706 10.0598 4.44516 10.0598 4.63087V5.31797C8.70431 5.50917 7.46379 6.1843 6.56724 7.21872C5.67068 8.25313 5.17863 9.57698 5.18192 10.9458V13.5369C5.11623 14.4166 4.87549 15.2743 4.47384 16.0597C4.1124 16.6274 3.67671 17.1442 3.17833 17.5965C3.12238 17.6457 3.07754 17.7062 3.04679 17.774C3.01605 17.8418 3.00009 17.9154 3 17.9899V18.7032C3 18.8423 3.05526 18.9757 3.15362 19.0741C3.25199 19.1724 3.38539 19.2277 3.5245 19.2277H18.1056C18.2447 19.2277 18.3781 19.1724 18.4765 19.0741C18.5748 18.9757 18.6301 18.8423 18.6301 18.7032V17.9899C18.63 17.9154 18.614 17.8418 18.5833 17.774C18.5525 17.7062 18.5077 17.6457 18.4518 17.5965V17.5965Z" fill="#455C58" stroke="#455C58" stroke-width="0.5"/>
<path d="M17.9221 9.294C19.6602 9.294 21.0691 7.88504 21.0691 6.147C21.0691 4.40896 19.6602 3 17.9221 3C16.1841 3 14.7751 4.40896 14.7751 6.147C14.7751 7.88504 16.1841 9.294 17.9221 9.294Z" fill="#D11A2A"/>
</svg>
