<svg width="20" height="22" viewBox="0 0 20 22" fill="none" xmlns="http://www.w3.org/2000/svg">
<g clip-path="url(#clip0_1035_232)">
<path fill-rule="evenodd" clip-rule="evenodd" d="M2 9.9498C2 5.81636 5.17942 2.5498 9 2.5498C12.8206 2.5498 16 5.81636 16 9.9498C16 11.9667 15.243 13.7771 14.024 15.1024C14.0022 15.12 13.981 15.1385 13.9604 15.1582C13.9158 15.2006 13.876 15.2462 13.841 15.2942C12.5769 16.5716 10.8648 17.3498 9 17.3498C5.17942 17.3498 2 14.0832 2 9.9498ZM14.6163 17.2968C13.0828 18.579 11.1349 19.3498 9 19.3498C3.98402 19.3498 0 15.0947 0 9.9498C0 4.80486 3.98402 0.549805 9 0.549805C14.016 0.549805 18 4.80486 18 9.9498C18 12.1748 17.2549 14.2334 16.0034 15.8534L19.7242 19.7601C20.105 20.1601 20.0896 20.7931 19.6897 21.1739C19.2897 21.5548 18.6568 21.5394 18.2759 21.1395L14.6163 17.2968Z" fill="#455C58" fill-opacity="0.5"/>
</g>
<defs>
<clipPath id="clip0_1035_232">
<rect width="20" height="21" fill="white" transform="translate(0 0.5)"/>
</clipPath>
</defs>
</svg>
