<svg width="20" height="17" viewBox="0 0 20 17" fill="none" xmlns="http://www.w3.org/2000/svg">
<path d="M7.0459 8.22283V16.1253C7.04591 16.2319 7.07716 16.3367 7.13669 16.4298C7.19623 16.5229 7.28206 16.6011 7.38604 16.6571C7.49002 16.7131 7.60869 16.745 7.73077 16.7497C7.85285 16.7544 7.97428 16.7318 8.08353 16.6841L12.3831 14.8091C12.502 14.7571 12.6019 14.6773 12.6718 14.5787C12.7417 14.48 12.7787 14.3663 12.7787 14.2503V8.22283L19.0661 1.52157C19.1257 1.45805 19.1705 1.38489 19.1977 1.30629C19.225 1.22768 19.2342 1.14517 19.2249 1.06345C19.2156 0.981735 19.1879 0.90242 19.1434 0.830034C19.099 0.757648 19.0386 0.693609 18.9657 0.641572C18.8929 0.589536 18.809 0.550522 18.7189 0.526757C18.6288 0.502993 18.5342 0.494943 18.4405 0.503068C18.3468 0.511194 18.2559 0.535334 18.1729 0.574112C18.0899 0.61289 18.0164 0.665546 17.9568 0.729073L11.5074 7.60408C11.4026 7.71587 11.3453 7.85589 11.3455 8.00033V13.8641L8.47909 15.1141V8.00033C8.47923 7.85589 8.422 7.71587 8.31714 7.60408L2.82516 1.75032H14.2119C14.4019 1.75032 14.5842 1.68447 14.7186 1.56726C14.853 1.45005 14.9284 1.29108 14.9284 1.12532C14.9284 0.959562 14.853 0.800591 14.7186 0.683381C14.5842 0.566171 14.4019 0.500322 14.2119 0.500322H1.31314C1.17739 0.500244 1.0444 0.533798 0.929668 0.597079C0.814932 0.660361 0.723165 0.750765 0.665051 0.857768C0.606937 0.964772 0.584867 1.08397 0.601411 1.20149C0.617955 1.31901 0.672431 1.43001 0.758498 1.52157L7.0459 8.22283Z" fill="#3E5D58"/>
</svg>
