<svg width="22" height="20" viewBox="0 0 22 20" fill="none" xmlns="http://www.w3.org/2000/svg">
<path fill-rule="evenodd" clip-rule="evenodd" d="M22 10C22 10.3788 21.8552 10.7421 21.5973 11.01C21.3395 11.2778 20.9898 11.4283 20.6252 11.4283H4.69618L10.5998 17.5586C10.7276 17.6914 10.829 17.8491 10.8982 18.0226C10.9674 18.1961 11.003 18.3821 11.003 18.5699C11.003 18.7577 10.9674 18.9437 10.8982 19.1172C10.829 19.2907 10.7276 19.4483 10.5998 19.5811C10.4719 19.7139 10.3202 19.8193 10.1532 19.8911C9.98616 19.963 9.80716 20 9.62638 20C9.44561 20 9.2666 19.963 9.09959 19.8911C8.93257 19.8193 8.78082 19.7139 8.65299 19.5811L0.403913 11.0112C0.275878 10.8786 0.174296 10.721 0.104986 10.5474C0.0356762 10.3739 0 10.1879 0 10C0 9.81213 0.0356762 9.6261 0.104986 9.45257C0.174296 9.27905 0.275878 9.12143 0.403913 8.98875L8.65299 0.418872C8.91115 0.150673 9.26129 0 9.62638 0C9.99148 0 10.3416 0.150673 10.5998 0.418872C10.8579 0.687071 11.003 1.05083 11.003 1.43012C11.003 1.80941 10.8579 2.17317 10.5998 2.44137L4.69618 8.57169H20.6252C20.9898 8.57169 21.3395 8.72217 21.5973 8.99003C21.8552 9.25789 22 9.62119 22 10Z" fill="#333333"/>
</svg>
