<svg width="16" height="16" viewBox="0 0 16 16" fill="none" xmlns="http://www.w3.org/2000/svg">
<path fill-rule="evenodd" clip-rule="evenodd" d="M4.406 1.342C5.40548 0.480135 6.68024 0.00413852 8 0C10.69 0 12.923 2 13.166 4.579C14.758 4.804 16 6.137 16 7.773C16 9.569 14.502 11 12.687 11H10C9.86739 11 9.74021 10.9473 9.64645 10.8536C9.55268 10.7598 9.5 10.6326 9.5 10.5C9.5 10.3674 9.55268 10.2402 9.64645 10.1464C9.74021 10.0527 9.86739 10 10 10H12.688C13.979 10 15 8.988 15 7.773C15 6.557 13.98 5.545 12.687 5.545H12.187V5.045C12.188 2.825 10.328 1 8 1C6.91988 1.00431 5.87684 1.39443 5.059 2.1C4.302 2.752 3.906 3.538 3.906 4.155V4.603L3.461 4.652C2.064 4.805 1 5.952 1 7.318C1 8.785 2.23 10 3.781 10H6C6.13261 10 6.25979 10.0527 6.35355 10.1464C6.44732 10.2402 6.5 10.3674 6.5 10.5C6.5 10.6326 6.44732 10.7598 6.35355 10.8536C6.25979 10.9473 6.13261 11 6 11H3.781C1.708 11 0 9.366 0 7.318C0 5.555 1.266 4.095 2.942 3.725C3.085 2.862 3.64 2.002 4.406 1.342Z" fill="#333333" fill-opacity="0.6"/>
<path fill-rule="evenodd" clip-rule="evenodd" d="M7.64663 4.14689C7.69308 4.10033 7.74825 4.06339 7.809 4.03818C7.86974 4.01297 7.93486 4 8.00063 4C8.0664 4 8.13152 4.01297 8.19227 4.03818C8.25301 4.06339 8.30819 4.10033 8.35463 4.14689L11.3546 7.14689C11.4485 7.24078 11.5013 7.36812 11.5013 7.50089C11.5013 7.63367 11.4485 7.76101 11.3546 7.85489C11.2607 7.94878 11.1334 8.00152 11.0006 8.00152C10.8679 8.00152 10.7405 7.94878 10.6466 7.85489L8.50063 5.70789V14.5009C8.50063 14.6335 8.44795 14.7607 8.35419 14.8544C8.26042 14.9482 8.13324 15.0009 8.00063 15.0009C7.86802 15.0009 7.74085 14.9482 7.64708 14.8544C7.55331 14.7607 7.50063 14.6335 7.50063 14.5009V5.70789L5.35463 7.85489C5.26075 7.94878 5.13341 8.00152 5.00063 8.00152C4.86786 8.00152 4.74052 7.94878 4.64663 7.85489C4.55275 7.76101 4.5 7.63367 4.5 7.50089C4.5 7.36812 4.55275 7.24078 4.64663 7.14689L7.64663 4.14689Z" fill="#333333" fill-opacity="0.6"/>
</svg>
