<svg width="32" height="32" viewBox="0 0 32 32" fill="none" xmlns="http://www.w3.org/2000/svg">
<path d="M26.9998 16.7604V15.2304L28.9198 13.5504C29.2737 13.2385 29.5059 12.8114 29.5755 12.3448C29.645 11.8782 29.5474 11.402 29.2998 11.0004L26.9398 7.00041C26.7644 6.69667 26.5122 6.44439 26.2086 6.26887C25.905 6.09335 25.5605 6.00077 25.2098 6.00041C24.9924 5.99874 24.7762 6.03252 24.5698 6.10041L22.1398 6.92041C21.7202 6.64161 21.2826 6.39106 20.8298 6.17041L20.3198 3.65041C20.2283 3.19001 19.9779 2.77645 19.6122 2.48211C19.2466 2.18777 18.7891 2.03141 18.3198 2.04041H13.6398C13.1705 2.03141 12.7129 2.18777 12.3473 2.48211C11.9817 2.77645 11.7312 3.19001 11.6398 3.65041L11.1298 6.17041C10.6737 6.39101 10.2327 6.64155 9.80976 6.92041L7.42976 6.06041C7.22106 6.00603 7.00494 5.98577 6.78976 6.00041C6.43904 6.00077 6.09457 6.09335 5.79093 6.26887C5.48728 6.44439 5.23513 6.69667 5.05976 7.00041L2.69976 11.0004C2.46635 11.4014 2.37962 11.8711 2.45441 12.329C2.52921 12.7869 2.76089 13.2045 3.10976 13.5104L4.99976 15.2404V16.7704L3.10976 18.4504C2.75103 18.7584 2.51302 19.1835 2.43796 19.6504C2.36291 20.1172 2.45566 20.5955 2.69976 21.0004L5.05976 25.0004C5.23513 25.3041 5.48728 25.5564 5.79093 25.7319C6.09457 25.9075 6.43904 26 6.78976 26.0004C7.00711 26.0021 7.22328 25.9683 7.42976 25.9004L9.85976 25.0804C10.2793 25.3592 10.7169 25.6098 11.1698 25.8304L11.6798 28.3504C11.7712 28.8108 12.0217 29.2244 12.3873 29.5187C12.7529 29.813 13.2105 29.9694 13.6798 29.9604H18.3998C18.8691 29.9694 19.3266 29.813 19.6922 29.5187C20.0579 29.2244 20.3083 28.8108 20.3998 28.3504L20.9098 25.8304C21.3658 25.6098 21.8068 25.3593 22.2298 25.0804L24.6498 25.9004C24.8562 25.9683 25.0724 26.0021 25.2898 26.0004C25.6405 26 25.985 25.9075 26.2886 25.7319C26.5922 25.5564 26.8444 25.3041 27.0198 25.0004L29.2998 21.0004C29.5332 20.5994 29.6199 20.1297 29.5451 19.6718C29.4703 19.2139 29.2386 18.7963 28.8898 18.4904L26.9998 16.7604Z" fill="#AA0061"/>
<path d="M25.2102 24L21.7802 22.84C20.9772 23.5201 20.0596 24.0517 19.0702 24.41L18.3602 28H13.6402L12.9302 24.45C11.9486 24.0816 11.0359 23.5509 10.2302 22.88L6.79018 24L4.43018 20L7.15018 17.6C6.96527 16.5649 6.96527 15.5051 7.15018 14.47L4.43018 12L6.79018 8L10.2202 9.16C11.0231 8.47989 11.9408 7.94825 12.9302 7.59L13.6402 4H18.3602L19.0702 7.55C20.0518 7.91842 20.9645 8.44914 21.7702 9.12L25.2102 8L27.5702 12L24.8502 14.4C25.0351 15.4351 25.0351 16.4949 24.8502 17.53L27.5702 20L25.2102 24Z" fill="white"/>
<path d="M16 22C14.8133 22 13.6533 21.6481 12.6666 20.9888C11.6799 20.3295 10.9109 19.3925 10.4567 18.2961C10.0026 17.1997 9.88378 15.9933 10.1153 14.8295C10.3468 13.6656 10.9182 12.5965 11.7574 11.7574C12.5965 10.9182 13.6656 10.3468 14.8295 10.1153C15.9933 9.88378 17.1997 10.0026 18.2961 10.4567C19.3925 10.9109 20.3295 11.6799 20.9888 12.6666C21.6481 13.6533 22 14.8133 22 16C22.008 16.7902 21.8583 17.574 21.5596 18.3056C21.2609 19.0371 20.8193 19.7018 20.2605 20.2605C19.7018 20.8193 19.0371 21.2609 18.3056 21.5596C17.574 21.8583 16.7902 22.008 16 22ZM16 12C15.4713 11.9877 14.9457 12.0827 14.4548 12.2794C13.9639 12.4761 13.5181 12.7702 13.1442 13.1442C12.7702 13.5181 12.4761 13.9639 12.2794 14.4548C12.0827 14.9457 11.9877 15.4713 12 16C11.9877 16.5287 12.0827 17.0543 12.2794 17.5452C12.4761 18.0361 12.7702 18.4819 13.1442 18.8559C13.5181 19.2298 13.9639 19.524 14.4548 19.7206C14.9457 19.9173 15.4713 20.0123 16 20C16.5287 20.0123 17.0543 19.9173 17.5452 19.7206C18.0361 19.524 18.4819 19.2298 18.8559 18.8559C19.2298 18.4819 19.524 18.0361 19.7206 17.5452C19.9173 17.0543 20.0123 16.5287 20 16C20.0123 15.4713 19.9173 14.9457 19.7206 14.4548C19.524 13.9639 19.2298 13.5181 18.8559 13.1442C18.4819 12.7702 18.0361 12.4761 17.5452 12.2794C17.0543 12.0827 16.5287 11.9877 16 12Z" fill="#AA0061"/>
</svg>
