<svg width="16" height="16" viewBox="0 0 16 16" fill="none" xmlns="http://www.w3.org/2000/svg">
<path fill-rule="evenodd" clip-rule="evenodd" d="M8.00033 0.667969C3.95033 0.667969 0.666992 3.9513 0.666992 8.0013C0.666992 12.0513 3.95033 15.3346 8.00033 15.3346C12.0503 15.3346 15.3337 12.0513 15.3337 8.0013C15.3337 3.9513 12.0503 0.667969 8.00033 0.667969ZM5.33366 7.33464C5.15685 7.33464 4.98728 7.40487 4.86225 7.5299C4.73723 7.65492 4.66699 7.82449 4.66699 8.0013C4.66699 8.17811 4.73723 8.34768 4.86225 8.47271C4.98728 8.59773 5.15685 8.66797 5.33366 8.66797H10.667C10.8438 8.66797 11.0134 8.59773 11.1384 8.47271C11.2634 8.34768 11.3337 8.17811 11.3337 8.0013C11.3337 7.82449 11.2634 7.65492 11.1384 7.5299C11.0134 7.40487 10.8438 7.33464 10.667 7.33464H5.33366Z" fill="#9EB356"/>
</svg>
