<svg width="15" height="16" viewBox="0 0 15 16" fill="none" xmlns="http://www.w3.org/2000/svg">
<path fill-rule="evenodd" clip-rule="evenodd" d="M7.33333 0.667969C3.28333 0.667969 0 3.9513 0 8.0013C0 12.0513 3.28333 15.3346 7.33333 15.3346C11.3833 15.3346 14.6667 12.0513 14.6667 8.0013C14.6667 3.9513 11.3833 0.667969 7.33333 0.667969ZM4.66667 7.33464C4.48986 7.33464 4.32029 7.40487 4.19526 7.5299C4.07024 7.65492 4 7.82449 4 8.0013C4 8.17811 4.07024 8.34768 4.19526 8.47271C4.32029 8.59773 4.48986 8.66797 4.66667 8.66797H10C10.1768 8.66797 10.3464 8.59773 10.4714 8.47271C10.5964 8.34768 10.6667 8.17811 10.6667 8.0013C10.6667 7.82449 10.5964 7.65492 10.4714 7.5299C10.3464 7.40487 10.1768 7.33464 10 7.33464H4.66667Z" fill="#9EB356"/>
</svg>
