<svg width="49" height="50" viewBox="0 0 49 50" fill="none" xmlns="http://www.w3.org/2000/svg">
<rect x="0.5" width="48.3333" height="50" rx="12" fill="#151F6D"/>
<g clip-path="url(#clip0_1586_1182)">
<path d="M35.8167 17.8235C35.8152 17.8235 35.8137 17.8235 35.8122 17.8235H34.2877V17.2839C34.2959 17.0703 34.1624 16.8783 33.9639 16.8187C32.9056 16.5317 31.8157 16.3879 30.7216 16.3907C28.9228 16.3907 26.472 16.8094 24.6597 18.7167C22.8609 16.7907 20.392 16.3907 18.5977 16.3907C17.5036 16.3879 16.4137 16.5317 15.3554 16.8187C15.1569 16.8783 15.0234 17.0703 15.0316 17.2839V17.8188H13.5161C13.2678 17.8188 13.0664 18.0271 13.0664 18.2841V33.1427C13.0664 33.3997 13.2678 33.608 13.5161 33.608C13.5933 33.6077 13.6692 33.5869 13.7365 33.5475C13.7814 33.5242 18.2784 30.9795 24.5562 32.6171H24.6237H24.6642C24.7 32.6215 24.7362 32.6215 24.7721 32.6171C31.0679 30.9656 35.5649 33.5056 35.5919 33.5475C35.731 33.6306 35.9024 33.6306 36.0416 33.5475C36.1798 33.4649 36.2655 33.3126 36.2664 33.1474V18.2887C36.2664 18.0318 36.0651 17.8235 35.8167 17.8235ZM13.9658 32.4031V18.7539H15.0406V30.4213C15.0378 30.6782 15.2368 30.8888 15.4852 30.8917C15.5095 30.892 15.5337 30.8903 15.5577 30.8865C16.4881 30.7396 17.4273 30.6618 18.3684 30.6539C19.6719 30.6305 20.97 30.8333 22.2088 31.254C19.4114 30.9041 16.5739 31.2996 13.9658 32.4031ZM18.3684 29.7281C17.5504 29.7301 16.7334 29.7844 15.922 29.891V17.6514C16.7976 17.4496 17.6917 17.3466 18.5887 17.3443C20.2706 17.3443 22.591 17.7444 24.201 19.6238L24.2145 31.2121C23.2791 30.5795 21.4533 29.7281 18.3684 29.7281ZM25.1139 19.6238C26.7238 17.763 29.0442 17.3443 30.7261 17.3443C31.6231 17.3471 32.5172 17.45 33.3928 17.6514V29.891C32.586 29.7834 31.7735 29.7275 30.96 29.7235C27.893 29.7235 26.0627 30.5748 25.1139 31.2075V19.6238ZM35.3625 32.4031C32.7489 31.2966 29.9048 30.901 27.1015 31.254C28.3461 30.8318 29.6504 30.6289 30.96 30.6539C31.9069 30.6594 32.8522 30.7355 33.7886 30.8818C34.0341 30.9204 34.2634 30.7457 34.3007 30.4917C34.3043 30.4669 34.306 30.4418 34.3057 30.4166V18.7539H35.3805L35.3625 32.4031Z" fill="white"/>
</g>
<defs>
<clipPath id="clip0_1586_1182">
<rect width="23.2" height="24" fill="white" transform="translate(13.0664 13)"/>
</clipPath>
</defs>
</svg>
