<svg width="50" height="50" viewBox="0 0 50 50" fill="none" xmlns="http://www.w3.org/2000/svg">
<rect width="50" height="50" rx="12" fill="#AA0061"/>
<path d="M18.9157 25.3002C19.0139 25.2636 19.0985 25.1979 19.158 25.1115C19.2172 25.0236 19.2478 24.9193 19.2457 24.8131C19.2502 24.6865 19.2063 24.5628 19.1227 24.4677C19.0413 24.3772 18.9314 24.3169 18.8111 24.2971C18.6261 24.2745 18.4395 24.2658 18.2532 24.271H17.8789V25.3603H18.3031C18.5092 25.3718 18.7159 25.3516 18.9157 25.3002L18.9157 25.3002Z" fill="white"/>
<path d="M22.5173 25.3005C22.6154 25.264 22.7001 25.1982 22.7595 25.1118C22.8187 25.0239 22.8494 24.9197 22.8472 24.8135C22.8518 24.6868 22.8078 24.5632 22.724 24.4679C22.6427 24.3771 22.5327 24.317 22.4126 24.2972C22.2276 24.2746 22.0411 24.2659 21.8548 24.2709H21.4805V25.3602H21.9046V25.3604C22.1107 25.3721 22.3175 25.3519 22.5173 25.3005L22.5173 25.3005Z" fill="white"/>
<path d="M32.0578 29.464C32.3163 29.4638 32.564 29.3609 32.7468 29.1781C32.9296 28.9953 33.0326 28.7476 33.0328 28.4891V22.6391C33.0326 22.3805 32.9296 22.1328 32.7468 21.95C32.564 21.7672 32.3163 21.6643 32.0578 21.6641H15.4828C15.2243 21.6643 14.9766 21.7672 14.7938 21.95C14.611 22.1328 14.508 22.3805 14.5078 22.6391V28.4891C14.508 28.7476 14.611 28.9953 14.7938 29.1781C14.9766 29.3609 15.2243 29.4638 15.4828 29.464H32.0578ZM27.3465 23.6213H28.2525L29.0223 24.8546L29.7764 23.6213H30.6745L29.4801 25.486L30.792 27.4604H29.8573L29.0064 26.1328L28.1533 27.4604H27.2238L28.5357 25.4568L27.3465 23.6213ZM24.0363 23.6213H27.0866V24.2707H25.9503V27.4599H25.1754L25.1751 24.2707H24.0361L24.0363 23.6213ZM20.7076 23.6213H21.9513H21.9511C22.2597 23.6089 22.5685 23.6282 22.873 23.679C23.0946 23.7377 23.2894 23.8703 23.4254 24.0546C23.5814 24.2718 23.66 24.5351 23.6485 24.8022C23.6552 25.0078 23.611 25.212 23.5201 25.3965C23.4432 25.5467 23.3316 25.6764 23.194 25.7743C23.0735 25.861 22.9368 25.9228 22.7918 25.9563C22.5261 25.9992 22.2567 26.0174 21.9874 26.0113H21.4825V27.4592H20.7075L20.7076 23.6213ZM17.104 23.6213H18.3475C18.6559 23.6089 18.9649 23.6282 19.2694 23.679C19.491 23.7377 19.6858 23.8703 19.8218 24.0546C19.9778 24.2718 20.0562 24.5351 20.0444 24.8022C20.0509 25.0078 20.007 25.212 19.916 25.3968C19.8392 25.5469 19.7273 25.6764 19.59 25.7746C19.4692 25.8612 19.3325 25.923 19.1878 25.9565C18.9219 25.9992 18.6526 26.0177 18.3834 26.0113H17.8789V27.4592L17.1037 27.4595L17.104 23.6213Z" fill="white"/>
<path d="M34.0097 9.96484H17.4347C16.9176 9.9655 16.422 10.1712 16.0564 10.5366C15.691 10.9022 15.4853 11.3978 15.4847 11.9148V20.6898H16.4597V11.9148C16.4599 11.6563 16.5628 11.4086 16.7456 11.2258C16.9284 11.043 17.1761 10.9401 17.4346 10.9399H34.0096C34.2682 10.9401 34.5159 11.043 34.6987 11.2258C34.8815 11.4086 34.9844 11.6563 34.9846 11.9148V32.2717C34.9844 32.3113 34.9818 32.3509 34.9768 32.3901H30.5972C30.2093 32.3906 29.8376 32.5449 29.5634 32.8189C29.2894 33.0931 29.1351 33.4648 29.1346 33.8526V38.2323C29.0955 38.2373 29.0559 38.2399 29.0163 38.2401H17.4344C17.1758 38.2399 16.9282 38.137 16.7453 37.9541C16.5625 37.7713 16.4596 37.5237 16.4594 37.2651V30.4401H15.4844V37.2651C15.485 37.7822 15.6907 38.2778 16.0561 38.6434C16.4217 39.0088 16.9173 39.2145 17.4344 39.2151H29.0163C29.5338 39.2167 30.0302 39.011 30.3952 38.6441L35.3886 33.6507C35.7553 33.2857 35.9609 32.7893 35.9597 32.2717V11.9149C35.959 11.3978 35.7533 10.9022 35.3879 10.5366C35.0223 10.1712 34.5267 9.96552 34.0097 9.96485L34.0097 9.96484Z" fill="white"/>
</svg>
