<svg width="5" height="18" viewBox="0 0 5 18" fill="none" xmlns="http://www.w3.org/2000/svg">
<path d="M0.874309 1.37411C0.0447717 2.20364 0.0447716 3.5486 0.874309 4.37814C1.70385 5.20767 3.0488 5.20767 3.87834 4.37814C4.70787 3.5486 4.70787 2.20364 3.87834 1.37411C3.04883 0.544569 1.70388 0.544569 0.874309 1.37411Z" fill="#333333"/>
<path d="M0.874309 7.37411C0.0447717 8.20364 0.0447716 9.5486 0.874309 10.3781C1.70385 11.2077 3.0488 11.2077 3.87834 10.3781C4.70787 9.5486 4.70787 8.20364 3.87834 7.37411C3.04883 6.54457 1.70388 6.54457 0.874309 7.37411Z" fill="#333333"/>
<path d="M0.874309 14.3741C0.0447717 15.2036 0.0447716 16.5486 0.874309 17.3781C1.70385 18.2077 3.0488 18.2077 3.87834 17.3781C4.70787 16.5486 4.70787 15.2036 3.87834 14.3741C3.04883 13.5446 1.70388 13.5446 0.874309 14.3741Z" fill="#333333"/>
</svg>
