<svg width="8" height="8" viewBox="0 0 8 8" fill="none" xmlns="http://www.w3.org/2000/svg">
<path d="M3.19818 7.34709C3.16297 7.30681 3.01246 7.15475 2.88865 7.01309C2.11 6.18261 0.835501 4.01614 0.446477 2.88221C0.383966 2.71 0.251661 2.27462 0.243164 2.04201C0.243164 1.81911 0.286861 1.60663 0.375469 1.40387C0.499277 1.15111 0.694093 0.948353 0.924109 0.837251C1.08372 0.76573 1.56136 0.654629 1.56985 0.654629C2.0924 0.543528 2.94146 0.482422 3.87973 0.482422C4.7737 0.482422 5.58816 0.543528 6.11859 0.634492C6.12709 0.644907 6.72064 0.756009 6.92395 0.877526C7.29538 1.10042 7.526 1.5358 7.526 2.00173V2.04201C7.5169 2.34545 7.28627 2.98359 7.27778 2.98359C6.88815 4.05641 5.67616 6.17289 4.8708 7.02351C4.8708 7.02351 4.66385 7.26307 4.53458 7.36723C4.34886 7.52971 4.11885 7.61026 3.88883 7.61026C3.63211 7.61026 3.39299 7.5193 3.19818 7.34709Z" fill="#333333"/>
</svg>
