<svg width="17" height="20" viewBox="0 0 17 20" fill="none" xmlns="http://www.w3.org/2000/svg">
<path d="M16 17.9999H1.99999C1.73478 17.9999 1.48042 18.1052 1.29288 18.2928C1.10535 18.4803 0.999992 18.7346 0.999992 18.9999C0.999992 19.2651 1.10535 19.5194 1.29288 19.707C1.48042 19.8945 1.73478 19.9999 1.99999 19.9999H16C16.2652 19.9999 16.5196 19.8945 16.7071 19.707C16.8946 19.5194 17 19.2651 17 18.9999C17 18.7346 16.8946 18.4803 16.7071 18.2928C16.5196 18.1052 16.2652 17.9999 16 17.9999ZM1.99999 15.9999H2.08999L6.25999 15.6199C6.71679 15.5744 7.14403 15.3731 7.46999 15.0499L16.47 6.04986C16.8193 5.68083 17.0081 5.18837 16.995 4.68039C16.9818 4.17242 16.7679 3.69037 16.4 3.33986L13.66 0.599858C13.3024 0.263954 12.8338 0.0712167 12.3433 0.0583099C11.8529 0.0454032 11.3748 0.213227 11 0.529858L1.99999 9.52986C1.67676 9.85582 1.4755 10.2831 1.42999 10.7399L0.999992 14.9099C0.98652 15.0563 1.00553 15.204 1.05565 15.3422C1.10578 15.4805 1.18579 15.606 1.28999 15.7099C1.38343 15.8025 1.49425 15.8759 1.61609 15.9256C1.73792 15.9754 1.86838 16.0006 1.99999 15.9999ZM12.27 1.99986L15 4.72986L13 6.67986L10.32 3.99986L12.27 1.99986ZM3.36999 10.9099L8.99999 5.31986L11.7 8.01986L6.09999 13.6199L3.09999 13.8999L3.36999 10.9099Z" fill="#151F6D"/>
</svg>
