<svg width="162" height="50" viewBox="0 0 162 50" fill="none" xmlns="http://www.w3.org/2000/svg">
<path d="M0 10C0 4.47715 4.47715 0 10 0H152C157.523 0 162 4.47715 162 10V40C162 45.5228 157.523 50 152 50H10C4.47716 50 0 45.5228 0 40V10Z" fill="#F7F7F8"/>
<path d="M57.096 30.112C56.6267 30.112 56.392 29.872 56.392 29.392V19.44C56.392 18.96 56.632 18.72 57.112 18.72H62.92C63.2933 18.72 63.48 18.9013 63.48 19.264C63.48 19.6373 63.2933 19.824 62.92 19.824H57.704V23.76H62.584C62.968 23.76 63.16 23.9413 63.16 24.304C63.16 24.6773 62.968 24.864 62.584 24.864H57.704V29.392C57.704 29.872 57.5013 30.112 57.096 30.112ZM67.1171 30.144C66.5838 30.144 66.1038 30.0427 65.6771 29.84C65.2611 29.6267 64.9305 29.3387 64.6851 28.976C64.4398 28.6133 64.3171 28.208 64.3171 27.76C64.3171 27.1947 64.4611 26.7467 64.7491 26.416C65.0478 26.0853 65.5331 25.8507 66.2051 25.712C66.8878 25.5627 67.8158 25.488 68.9891 25.488H69.5011V24.992C69.5011 24.3307 69.3625 23.856 69.0851 23.568C68.8185 23.2693 68.3865 23.12 67.7891 23.12C67.4158 23.12 67.0371 23.168 66.6531 23.264C66.2798 23.36 65.8905 23.5147 65.4851 23.728C65.3038 23.824 65.1491 23.8453 65.0211 23.792C64.9038 23.728 64.8185 23.632 64.7651 23.504C64.7225 23.3653 64.7225 23.2267 64.7651 23.088C64.8185 22.9387 64.9251 22.8267 65.0851 22.752C65.5438 22.5173 66.0025 22.3467 66.4611 22.24C66.9305 22.1333 67.3731 22.08 67.7891 22.08C68.7918 22.08 69.5331 22.3253 70.0131 22.816C70.5038 23.3067 70.7491 24.0693 70.7491 25.104V29.44C70.7491 29.888 70.5518 30.112 70.1571 30.112C69.7411 30.112 69.5331 29.888 69.5331 29.44V28.656C69.3305 29.1147 69.0158 29.4773 68.5891 29.744C68.1731 30.0107 67.6825 30.144 67.1171 30.144ZM67.3251 29.168C67.9651 29.168 68.4878 28.9493 68.8931 28.512C69.2985 28.064 69.5011 27.4987 69.5011 26.816V26.336H69.0051C68.1411 26.336 67.4585 26.3787 66.9571 26.464C66.4665 26.5387 66.1198 26.6773 65.9171 26.88C65.7251 27.072 65.6291 27.3387 65.6291 27.68C65.6291 28.1173 65.7785 28.4747 66.0771 28.752C66.3865 29.0293 66.8025 29.168 67.3251 29.168ZM76.4495 30.144C75.6708 30.144 74.9988 29.9787 74.4335 29.648C73.8682 29.3067 73.4308 28.832 73.1215 28.224C72.8228 27.6053 72.6735 26.8853 72.6735 26.064C72.6735 24.8267 73.0095 23.856 73.6815 23.152C74.3535 22.4373 75.2762 22.08 76.4495 22.08C76.8335 22.08 77.2335 22.144 77.6495 22.272C78.0655 22.3893 78.4442 22.5867 78.7855 22.864C78.9668 22.992 79.0415 23.152 79.0095 23.344C78.9882 23.536 78.8975 23.68 78.7375 23.776C78.5882 23.872 78.4122 23.8507 78.2095 23.712C77.9215 23.4987 77.6335 23.3493 77.3455 23.264C77.0682 23.1787 76.7962 23.136 76.5295 23.136C75.7188 23.136 75.0948 23.392 74.6575 23.904C74.2202 24.4053 74.0015 25.1307 74.0015 26.08C74.0015 27.008 74.2202 27.744 74.6575 28.288C75.0948 28.8213 75.7188 29.088 76.5295 29.088C76.7962 29.088 77.0682 29.0453 77.3455 28.96C77.6335 28.8747 77.9215 28.7253 78.2095 28.512C78.4122 28.3733 78.5882 28.3573 78.7375 28.464C78.8868 28.56 78.9668 28.704 78.9775 28.896C78.9988 29.088 78.9242 29.2427 78.7535 29.36C78.4122 29.6373 78.0388 29.84 77.6335 29.968C77.2282 30.0853 76.8335 30.144 76.4495 30.144ZM83.9075 30.144C82.6808 30.144 81.7102 29.7867 80.9955 29.072C80.2808 28.3467 79.9235 27.3653 79.9235 26.128C79.9235 25.328 80.0835 24.624 80.4035 24.016C80.7235 23.3973 81.1608 22.9227 81.7155 22.592C82.2808 22.2507 82.9315 22.08 83.6675 22.08C84.7235 22.08 85.5502 22.4213 86.1475 23.104C86.7448 23.776 87.0435 24.704 87.0435 25.888C87.0435 26.2187 86.8568 26.384 86.4835 26.384H81.1875C81.2302 27.2693 81.4862 27.9467 81.9555 28.416C82.4248 28.8747 83.0755 29.104 83.9075 29.104C84.2595 29.104 84.6168 29.0613 84.9795 28.976C85.3422 28.88 85.6942 28.7147 86.0355 28.48C86.2808 28.32 86.4835 28.288 86.6435 28.384C86.8142 28.48 86.8995 28.6293 86.8995 28.832C86.9102 29.024 86.8035 29.1947 86.5795 29.344C86.2275 29.6 85.8062 29.7973 85.3155 29.936C84.8355 30.0747 84.3662 30.144 83.9075 30.144ZM83.6995 23.04C82.9635 23.04 82.3822 23.2693 81.9555 23.728C81.5288 24.1867 81.2782 24.7893 81.2035 25.536H85.9235C85.8915 24.7467 85.6835 24.1333 85.2995 23.696C84.9262 23.2587 84.3928 23.04 83.6995 23.04ZM92.8551 30.144C92.2471 30.144 91.7085 30.0107 91.2391 29.744C90.7698 29.4667 90.4231 29.088 90.1991 28.608V29.44C90.1991 29.888 89.9858 30.112 89.5591 30.112C89.1325 30.112 88.9191 29.888 88.9191 29.44V19.264C88.9191 18.8267 89.1325 18.608 89.5591 18.608C89.9965 18.608 90.2151 18.8267 90.2151 19.264V23.568C90.4391 23.1093 90.7858 22.7467 91.2551 22.48C91.7245 22.2133 92.2578 22.08 92.8551 22.08C93.5485 22.08 94.1511 22.2453 94.6631 22.576C95.1858 22.896 95.5858 23.36 95.8631 23.968C96.1511 24.5653 96.2951 25.28 96.2951 26.112C96.2951 26.9333 96.1511 27.648 95.8631 28.256C95.5858 28.8533 95.1858 29.3173 94.6631 29.648C94.1511 29.9787 93.5485 30.144 92.8551 30.144ZM92.5831 29.104C93.3085 29.104 93.8898 28.848 94.3271 28.336C94.7645 27.8133 94.9831 27.072 94.9831 26.112C94.9831 25.1413 94.7645 24.4 94.3271 23.888C93.8898 23.376 93.3085 23.12 92.5831 23.12C91.8578 23.12 91.2765 23.376 90.8391 23.888C90.4018 24.4 90.1831 25.1413 90.1831 26.112C90.1831 27.072 90.4018 27.8133 90.8391 28.336C91.2765 28.848 91.8578 29.104 92.5831 29.104ZM101.479 30.144C100.722 30.144 100.066 29.9787 99.5113 29.648C98.9566 29.3173 98.5246 28.8533 98.2153 28.256C97.9166 27.648 97.7673 26.9333 97.7673 26.112C97.7673 25.2907 97.9166 24.5813 98.2153 23.984C98.5246 23.376 98.9566 22.9067 99.5113 22.576C100.066 22.2453 100.722 22.08 101.479 22.08C102.226 22.08 102.877 22.2453 103.431 22.576C103.997 22.9067 104.429 23.376 104.727 23.984C105.037 24.5813 105.191 25.2907 105.191 26.112C105.191 26.9333 105.037 27.648 104.727 28.256C104.429 28.8533 103.997 29.3173 103.431 29.648C102.877 29.9787 102.226 30.144 101.479 30.144ZM101.479 29.104C102.205 29.104 102.786 28.848 103.223 28.336C103.661 27.8133 103.879 27.072 103.879 26.112C103.879 25.1413 103.661 24.4 103.223 23.888C102.786 23.376 102.205 23.12 101.479 23.12C100.743 23.12 100.157 23.376 99.7193 23.888C99.2926 24.4 99.0793 25.1413 99.0793 26.112C99.0793 27.072 99.2926 27.8133 99.7193 28.336C100.157 28.848 100.743 29.104 101.479 29.104ZM110.37 30.144C109.613 30.144 108.957 29.9787 108.402 29.648C107.847 29.3173 107.415 28.8533 107.106 28.256C106.807 27.648 106.658 26.9333 106.658 26.112C106.658 25.2907 106.807 24.5813 107.106 23.984C107.415 23.376 107.847 22.9067 108.402 22.576C108.957 22.2453 109.613 22.08 110.37 22.08C111.117 22.08 111.767 22.2453 112.322 22.576C112.887 22.9067 113.319 23.376 113.618 23.984C113.927 24.5813 114.082 25.2907 114.082 26.112C114.082 26.9333 113.927 27.648 113.618 28.256C113.319 28.8533 112.887 29.3173 112.322 29.648C111.767 29.9787 111.117 30.144 110.37 30.144ZM110.37 29.104C111.095 29.104 111.677 28.848 112.114 28.336C112.551 27.8133 112.77 27.072 112.77 26.112C112.77 25.1413 112.551 24.4 112.114 23.888C111.677 23.376 111.095 23.12 110.37 23.12C109.634 23.12 109.047 23.376 108.61 23.888C108.183 24.4 107.97 25.1413 107.97 26.112C107.97 27.072 108.183 27.8133 108.61 28.336C109.047 28.848 109.634 29.104 110.37 29.104ZM116.669 30.112C116.242 30.112 116.029 29.888 116.029 29.44V19.264C116.029 18.8267 116.242 18.608 116.669 18.608C117.106 18.608 117.325 18.8267 117.325 19.264V25.68H117.357L120.637 22.544C120.775 22.4053 120.903 22.2987 121.021 22.224C121.138 22.1493 121.293 22.112 121.485 22.112C121.741 22.112 121.906 22.2133 121.981 22.416C122.066 22.608 122.013 22.8053 121.821 23.008L118.701 25.968L122.125 29.184C122.349 29.3973 122.407 29.6053 122.301 29.808C122.205 30.0107 122.039 30.112 121.805 30.112C121.613 30.112 121.453 30.0747 121.325 30C121.207 29.9147 121.069 29.792 120.909 29.632L117.357 26.352H117.325V29.44C117.325 29.888 117.106 30.112 116.669 30.112Z" fill="#333333"/>
<path d="M40.3018 24.5868H42.3524V32.7097C42.3524 32.8701 42.4874 33 42.6541 33H46.131C46.2977 33 46.4328 32.8701 46.4328 32.7097V24.6251H48.7902C48.9434 24.6251 49.0724 24.5144 49.0899 24.3679L49.448 21.3775C49.4578 21.2952 49.4307 21.2128 49.3735 21.1511C49.3162 21.0893 49.2343 21.0539 49.1483 21.0539H46.4329V19.1794C46.4329 18.6143 46.7491 18.3277 47.3729 18.3277C47.4618 18.3277 49.1483 18.3277 49.1483 18.3277C49.315 18.3277 49.45 18.1977 49.45 18.0374V15.2925C49.45 15.1321 49.315 15.0021 49.1483 15.0021H46.7015C46.6843 15.0013 46.6459 15 46.5895 15C46.1649 15 44.6893 15.0802 43.5236 16.112C42.232 17.2554 42.4116 18.6244 42.4545 18.8618V21.0539H40.3017C40.135 21.0539 40 21.1838 40 21.3442V24.2964C40 24.4568 40.1351 24.5868 40.3018 24.5868Z" fill="#385C8E"/>
</svg>
