<svg width="50" height="50" viewBox="0 0 50 50" fill="none" xmlns="http://www.w3.org/2000/svg">
<rect width="50" height="50" rx="12" fill="#151F6D"/>
<path fill-rule="evenodd" clip-rule="evenodd" d="M22.3846 15H20.4528C16.7299 15 15 17.1754 15 21.2285V28.7715C15 32.6361 17.3635 35 21.229 35H28.7533C32.6114 35 34.9735 32.6347 34.9735 28.7715L35 23.9706C35 19.9227 33.3106 17.9413 29.5296 17.9413H26.7951C26.3298 17.9403 25.8906 17.7204 25.6098 17.3471L24.7281 16.1729C24.1753 15.4348 23.3068 15 22.3846 15ZM20.4528 16.4515H22.3846C22.8506 16.4515 23.2894 16.6712 23.569 17.0444L24.4516 18.2199C25.0059 18.9569 25.8727 19.3909 26.7936 19.3927L29.5296 19.3927C32.4547 19.3927 33.5505 20.6779 33.5505 23.9666L33.524 28.7675C33.524 31.8331 31.8109 33.5485 28.7533 33.5485H21.229C18.1637 33.5485 16.4495 31.8341 16.4495 28.7715V21.2285C16.4495 17.9137 17.6123 16.4515 20.4528 16.4515ZM30.3425 27.5438C30.3425 27.143 30.0181 26.8181 29.6178 26.8181H20.347L20.2486 26.8247C19.8948 26.8727 19.6222 27.1764 19.6222 27.5438C19.6222 27.9446 19.9467 28.2695 20.347 28.2695H29.6178L29.7161 28.2629C30.0699 28.2149 30.3425 27.9112 30.3425 27.5438Z" fill="white"/>
</svg>
