<svg width="164" height="50" viewBox="0 0 164 50" fill="none" xmlns="http://www.w3.org/2000/svg">
<path d="M0 10C0 4.47715 4.47715 0 10 0H154C159.523 0 164 4.47715 164 10V40C164 45.5228 159.523 50 154 50H10C4.47715 50 0 45.5228 0 40V10Z" fill="#F7F7F8"/>
<path d="M73.9439 30.144C72.1306 30.144 70.7492 29.632 69.7999 28.608C68.8506 27.584 68.3759 26.1707 68.3759 24.368C68.3759 23.1733 68.5892 22.144 69.0159 21.28C69.4426 20.416 70.0559 19.7493 70.8559 19.28C71.6559 18.8107 72.6212 18.576 73.7519 18.576C74.4239 18.576 75.0746 18.672 75.7039 18.864C76.3332 19.0453 76.8932 19.3387 77.3839 19.744C77.5332 19.8507 77.6186 19.984 77.6399 20.144C77.6612 20.2933 77.6292 20.4373 77.5439 20.576C77.4692 20.704 77.3572 20.7893 77.2079 20.832C77.0692 20.8747 76.9199 20.8427 76.7599 20.736C76.3226 20.3947 75.8586 20.1493 75.3679 20C74.8772 19.84 74.3332 19.76 73.7359 19.76C72.4559 19.76 71.4746 20.1653 70.7919 20.976C70.1092 21.776 69.7679 22.9067 69.7679 24.368C69.7679 25.8613 70.1199 27.0027 70.8239 27.792C71.5279 28.5813 72.5786 28.976 73.9759 28.976C74.8826 28.976 75.7519 28.8213 76.5839 28.512V25.168H74.2959C73.9119 25.168 73.7199 24.992 73.7199 24.64C73.7199 24.2987 73.9119 24.128 74.2959 24.128H77.1599C77.5332 24.128 77.7199 24.3147 77.7199 24.688V28.864C77.7199 29.1947 77.6026 29.408 77.3679 29.504C76.9199 29.696 76.3812 29.8507 75.7519 29.968C75.1332 30.0853 74.5306 30.144 73.9439 30.144ZM83.4573 30.144C82.6999 30.144 82.0439 29.9787 81.4893 29.648C80.9346 29.3173 80.5026 28.8533 80.1933 28.256C79.8946 27.648 79.7453 26.9333 79.7453 26.112C79.7453 25.2907 79.8946 24.5813 80.1933 23.984C80.5026 23.376 80.9346 22.9067 81.4893 22.576C82.0439 22.2453 82.6999 22.08 83.4573 22.08C84.2039 22.08 84.8546 22.2453 85.4093 22.576C85.9746 22.9067 86.4066 23.376 86.7053 23.984C87.0146 24.5813 87.1693 25.2907 87.1693 26.112C87.1693 26.9333 87.0146 27.648 86.7053 28.256C86.4066 28.8533 85.9746 29.3173 85.4093 29.648C84.8546 29.9787 84.2039 30.144 83.4573 30.144ZM83.4573 29.104C84.1826 29.104 84.7639 28.848 85.2013 28.336C85.6386 27.8133 85.8573 27.072 85.8573 26.112C85.8573 25.1413 85.6386 24.4 85.2013 23.888C84.7639 23.376 84.1826 23.12 83.4573 23.12C82.7213 23.12 82.1346 23.376 81.6973 23.888C81.2706 24.4 81.0573 25.1413 81.0573 26.112C81.0573 27.072 81.2706 27.8133 81.6973 28.336C82.1346 28.848 82.7213 29.104 83.4573 29.104ZM92.3479 30.144C91.5906 30.144 90.9346 29.9787 90.3799 29.648C89.8252 29.3173 89.3932 28.8533 89.0839 28.256C88.7852 27.648 88.6359 26.9333 88.6359 26.112C88.6359 25.2907 88.7852 24.5813 89.0839 23.984C89.3932 23.376 89.8252 22.9067 90.3799 22.576C90.9346 22.2453 91.5906 22.08 92.3479 22.08C93.0946 22.08 93.7452 22.2453 94.2999 22.576C94.8652 22.9067 95.2972 23.376 95.5959 23.984C95.9052 24.5813 96.0599 25.2907 96.0599 26.112C96.0599 26.9333 95.9052 27.648 95.5959 28.256C95.2972 28.8533 94.8652 29.3173 94.2999 29.648C93.7452 29.9787 93.0946 30.144 92.3479 30.144ZM92.3479 29.104C93.0732 29.104 93.6546 28.848 94.0919 28.336C94.5292 27.8133 94.7479 27.072 94.7479 26.112C94.7479 25.1413 94.5292 24.4 94.0919 23.888C93.6546 23.376 93.0732 23.12 92.3479 23.12C91.6119 23.12 91.0252 23.376 90.5879 23.888C90.1612 24.4 89.9479 25.1413 89.9479 26.112C89.9479 27.072 90.1612 27.8133 90.5879 28.336C91.0252 28.848 91.6119 29.104 92.3479 29.104ZM101.447 33.024C100.881 33.024 100.327 32.9547 99.7825 32.816C99.2492 32.688 98.7639 32.48 98.3265 32.192C98.1665 32.096 98.0705 31.9787 98.0385 31.84C98.0172 31.712 98.0385 31.584 98.1025 31.456C98.1665 31.3387 98.2572 31.2533 98.3745 31.2C98.5025 31.1467 98.6359 31.1573 98.7745 31.232C99.2439 31.52 99.6919 31.7173 100.119 31.824C100.545 31.9307 100.967 31.984 101.383 31.984C102.919 31.984 103.687 31.1947 103.687 29.616V28.24C103.463 28.7307 103.111 29.12 102.631 29.408C102.161 29.6853 101.623 29.824 101.015 29.824C100.3 29.824 99.6812 29.6587 99.1585 29.328C98.6359 28.9973 98.2305 28.544 97.9425 27.968C97.6652 27.3813 97.5265 26.704 97.5265 25.936C97.5265 25.168 97.6652 24.496 97.9425 23.92C98.2305 23.3333 98.6359 22.88 99.1585 22.56C99.6812 22.24 100.3 22.08 101.015 22.08C101.623 22.08 102.161 22.2133 102.631 22.48C103.1 22.7467 103.447 23.12 103.671 23.6V22.768C103.671 22.3307 103.884 22.112 104.311 22.112C104.737 22.112 104.951 22.3307 104.951 22.768V29.44C104.951 30.6347 104.652 31.5307 104.055 32.128C103.468 32.7253 102.599 33.024 101.447 33.024ZM101.255 28.768C102.001 28.768 102.593 28.512 103.031 28C103.468 27.488 103.687 26.8 103.687 25.936C103.687 25.072 103.468 24.3893 103.031 23.888C102.593 23.376 102.001 23.12 101.255 23.12C100.519 23.12 99.9319 23.376 99.4945 23.888C99.0572 24.3893 98.8385 25.072 98.8385 25.936C98.8385 26.8 99.0572 27.488 99.4945 28C99.9319 28.512 100.519 28.768 101.255 28.768ZM109.75 30.144C108.982 30.144 108.395 29.9147 107.99 29.456C107.584 28.9867 107.382 28.3093 107.382 27.424V19.264C107.382 18.8267 107.595 18.608 108.022 18.608C108.459 18.608 108.678 18.8267 108.678 19.264V27.328C108.678 28.4693 109.131 29.04 110.038 29.04C110.134 29.04 110.219 29.0347 110.294 29.024C110.368 29.0133 110.443 29.008 110.518 29.008C110.635 28.9973 110.715 29.024 110.758 29.088C110.811 29.152 110.838 29.28 110.838 29.472C110.838 29.8347 110.656 30.0427 110.294 30.096C110.208 30.1173 110.118 30.128 110.022 30.128C109.926 30.1387 109.835 30.144 109.75 30.144ZM115.542 30.144C114.315 30.144 113.344 29.7867 112.63 29.072C111.915 28.3467 111.558 27.3653 111.558 26.128C111.558 25.328 111.718 24.624 112.038 24.016C112.358 23.3973 112.795 22.9227 113.35 22.592C113.915 22.2507 114.566 22.08 115.302 22.08C116.358 22.08 117.184 22.4213 117.782 23.104C118.379 23.776 118.678 24.704 118.678 25.888C118.678 26.2187 118.491 26.384 118.118 26.384H112.822C112.864 27.2693 113.12 27.9467 113.59 28.416C114.059 28.8747 114.71 29.104 115.542 29.104C115.894 29.104 116.251 29.0613 116.614 28.976C116.976 28.88 117.328 28.7147 117.67 28.48C117.915 28.32 118.118 28.288 118.278 28.384C118.448 28.48 118.534 28.6293 118.534 28.832C118.544 29.024 118.438 29.1947 118.214 29.344C117.862 29.6 117.44 29.7973 116.95 29.936C116.47 30.0747 116 30.144 115.542 30.144ZM115.334 23.04C114.598 23.04 114.016 23.2693 113.59 23.728C113.163 24.1867 112.912 24.7893 112.838 25.536H117.558C117.526 24.7467 117.318 24.1333 116.934 23.696C116.56 23.2587 116.027 23.04 115.334 23.04Z" fill="#333333"/>
<path d="M62.7478 22.334C62.8318 22.334 62.8999 22.3988 62.8999 22.4789V24C62.8999 24.5693 62.8444 25.1259 62.7379 25.6659C61.9141 29.8604 58.034 33.0302 53.3833 32.9997C48.1648 32.9654 43.9885 28.9497 44 23.9797C44.0115 19.0185 48.2381 15 53.4499 15C56.0034 15 58.3202 15.9648 60.0211 17.5319C60.0825 17.5884 60.0841 17.6817 60.0237 17.7392L57.7642 19.8911C57.706 19.9465 57.612 19.948 57.5524 19.8939C56.4848 18.9261 55.0404 18.332 53.4499 18.332C50.1657 18.332 47.521 20.8328 47.4987 23.9606C47.4763 27.1089 50.1494 29.6679 53.4499 29.6679C56.1279 29.6679 58.3928 27.9831 59.1397 25.6659H53.6021C53.518 25.6659 53.4499 25.6011 53.4499 25.521V22.4788C53.4499 22.3988 53.518 22.3339 53.6021 22.3339H62.7478V22.334Z" fill="#2196F3"/>
<path d="M62.7479 22.3345H61.607C61.6911 22.3345 61.7592 22.3993 61.7592 22.4794V24.0005C61.7592 24.5698 61.7037 25.1264 61.5972 25.6664C60.8112 29.668 57.2437 32.7369 52.879 32.9842C53.046 32.9936 53.2141 32.9991 53.3834 33.0002C58.0342 33.0307 61.9142 29.8608 62.738 25.6664C62.8445 25.1264 62.9 24.5698 62.9 24.0005V22.4793C62.9 22.3993 62.8319 22.3345 62.7479 22.3345Z" fill="#1E88E5"/>
<path d="M48.0445 21.6263L45.1746 19.6514C46.7847 16.8779 49.8874 15 53.4502 15C56.0036 15 58.3204 15.9648 60.0214 17.5319C60.0828 17.5884 60.0844 17.6817 60.024 17.7392L57.7644 19.8911C57.7064 19.9464 57.6124 19.9481 57.5529 19.8942C56.4853 18.9262 55.0408 18.332 53.4502 18.332C51.0533 18.332 48.9872 19.6814 48.0445 21.6263Z" fill="#F44336"/>
<path d="M47.2159 21.0561L48.0445 21.6263C48.9049 19.8511 50.7015 18.5726 52.831 18.3629C52.847 18.3612 52.8624 18.3592 52.8787 18.3577C52.6913 18.3408 52.5014 18.3319 52.3093 18.3319C50.1441 18.3319 48.257 19.4191 47.2159 21.0561Z" fill="#E53935"/>
<path d="M58.8805 17.5319C58.9419 17.5884 58.9435 17.6817 58.8831 17.7392L57.0491 19.4859C57.2248 19.6131 57.393 19.7493 57.5526 19.894C57.6122 19.948 57.7062 19.9466 57.7644 19.8912L60.0239 17.7392C60.0843 17.6817 60.0827 17.5885 60.0213 17.5319C58.3204 15.9648 56.0036 15 53.4501 15C53.2585 15 53.0684 15.0061 52.8796 15.0168C55.2067 15.1488 57.3071 16.0823 58.8805 17.5319Z" fill="#E53935"/>
<path d="M60.3823 30.1164C58.6566 31.8899 56.1893 33 53.4502 33C49.7504 33 46.5473 30.9751 44.9962 28.0252L47.9262 26.1129C48.8054 28.1965 50.9475 29.668 53.4502 29.668C55.0207 29.668 56.449 29.0885 57.5123 28.1418L60.3823 30.1164Z" fill="#4CAF50"/>
<path d="M47.9263 26.1129L47.0623 26.6768C48.0658 28.4572 50.0392 29.668 52.3094 29.668C52.5014 29.668 52.6912 29.659 52.8785 29.6421C50.625 29.4375 48.7378 28.0359 47.9263 26.1129Z" fill="#43A047"/>
<path d="M53.45 33.0002C56.1892 33.0002 58.6564 31.8901 60.3822 30.1166L59.6792 29.6329C58.0588 31.5535 55.6281 32.8276 52.881 32.9838C53.0693 32.9945 53.259 33.0002 53.45 33.0002Z" fill="#43A047"/>
<path d="M47.4988 24.0007C47.4988 24.7474 47.6505 25.4606 47.9262 26.1136L44.9961 28.0258C44.3588 26.8147 44.0002 25.4475 44.0002 24.0007C44.0002 22.4234 44.4261 20.941 45.1745 19.6521L48.0445 21.627C47.6942 22.3488 47.4988 23.1532 47.4988 24.0007Z" fill="#FFC107"/>
<path d="M47.0622 26.6771L47.9262 26.1133C47.6505 25.4603 47.4988 24.7471 47.4988 24.0003C47.4988 23.1529 47.6942 22.3485 48.0445 21.6267L47.2159 21.0565C46.6779 21.9026 46.3657 22.8954 46.3581 23.961C46.351 24.9438 46.6067 25.8691 47.0622 26.6771Z" fill="#FFB300"/>
</svg>
