<svg width="24" height="26" viewBox="0 0 24 26" fill="none" xmlns="http://www.w3.org/2000/svg">
<path fill-rule="evenodd" clip-rule="evenodd" d="M20.3395 8.34176C21.0095 8.88998 21.4205 9.70437 21.4905 10.5906L21.5005 10.8029V19.3683C21.5005 21.576 19.8495 23.3716 17.7805 23.4878H15.7905C14.8395 23.4678 14.0705 22.6861 14.0005 21.7038L13.9905 21.5548V18.5349C13.9905 18.2064 13.7595 17.9328 13.4505 17.879L13.3605 17.8684H10.6895C10.3705 17.879 10.1105 18.1219 10.0705 18.4388L10.0605 18.5349V21.5453C10.0605 21.6077 10.0495 21.6816 10.0405 21.7344L10.0305 21.7566L10.0195 21.8295C9.90049 22.7284 9.20049 23.4139 8.33049 23.4783L8.20049 23.4878H6.41049C4.32049 23.4878 2.61049 21.7566 2.50049 19.5796V10.8029C2.50949 9.90401 2.88049 9.06955 3.50049 8.48859L9.73049 3.1966C11.0005 2.13081 12.7805 2.08856 14.0895 3.06984L14.2505 3.1966L20.3395 8.34176ZM20.0995 19.5373L20.1105 19.3683V10.8124C20.0995 10.3593 19.9205 9.9357 19.6105 9.61987L19.4805 9.50262L13.3805 4.34795C12.6205 3.70362 11.5405 3.67298 10.7405 4.23176L10.5895 4.34795L4.50949 9.52481C4.16049 9.79838 3.95049 10.2103 3.90049 10.6434L3.88949 10.8124V19.3683C3.88949 20.7732 4.92949 21.9245 6.25049 22.009H8.20049C8.42049 22.009 8.61049 21.8517 8.63949 21.6298L8.66049 21.4397L8.67049 21.3858V18.5349C8.67049 17.4047 9.49049 16.4857 10.5405 16.4002H13.3605C14.4295 16.4002 15.2995 17.2674 15.3805 18.3765V21.5548C15.3805 21.7767 15.5305 21.9678 15.7305 22.009H17.5895C18.9295 22.009 20.0195 20.9221 20.0995 19.5373Z" fill="#333333" fill-opacity="0.5"/>
</svg>
