<svg width="32" height="32" viewBox="0 0 32 32" fill="none" xmlns="http://www.w3.org/2000/svg">
<path d="M0 3C0 1.34315 1.34315 0 3 0H29C30.6569 0 32 1.34315 32 3V29C32 30.6569 30.6569 32 29 32H3C1.34315 32 0 30.6569 0 29V3Z" fill="#151F6D"/>
<path d="M0.5 3C0.5 1.61929 1.61929 0.5 3 0.5H29C30.3807 0.5 31.5 1.61929 31.5 3V29C31.5 30.3807 30.3807 31.5 29 31.5H3C1.61929 31.5 0.5 30.3807 0.5 29V3Z" stroke="#424242" stroke-opacity="0.1"/>
<path d="M18.25 14.5C18.695 14.5 19.13 14.368 19.5 14.1208C19.87 13.8736 20.1584 13.5222 20.3287 13.111C20.499 12.6999 20.5436 12.2475 20.4568 11.811C20.37 11.3746 20.1557 10.9737 19.841 10.659C19.5263 10.3443 19.1254 10.1301 18.689 10.0432C18.2525 9.95642 17.8001 10.001 17.389 10.1713C16.9778 10.3416 16.6264 10.63 16.3792 11C16.132 11.37 16 11.805 16 12.25C16 12.8467 16.2371 13.419 16.659 13.841C17.081 14.2629 17.6533 14.5 18.25 14.5ZM18.25 11.5C18.3983 11.5 18.5433 11.544 18.6667 11.6264C18.79 11.7088 18.8861 11.8259 18.9429 11.963C18.9997 12.1 19.0145 12.2508 18.9856 12.3963C18.9567 12.5418 18.8852 12.6754 18.7803 12.7803C18.6754 12.8852 18.5418 12.9567 18.3963 12.9856C18.2508 13.0145 18.1 12.9997 17.963 12.9429C17.8259 12.8861 17.7088 12.79 17.6264 12.6667C17.544 12.5433 17.5 12.3983 17.5 12.25C17.5 12.0511 17.579 11.8603 17.7197 11.7197C17.8603 11.579 18.0511 11.5 18.25 11.5Z" fill="white"/>
<path d="M23.5 7H8.5C8.10218 7 7.72064 7.15804 7.43934 7.43934C7.15804 7.72064 7 8.10218 7 8.5V23.5C7 23.8978 7.15804 24.2794 7.43934 24.5607C7.72064 24.842 8.10218 25 8.5 25H23.5C23.8978 25 24.2794 24.842 24.5607 24.5607C24.842 24.2794 25 23.8978 25 23.5V8.5C25 8.10218 24.842 7.72064 24.5607 7.43934C24.2794 7.15804 23.8978 7 23.5 7ZM23.5 23.5H8.5V19L12.25 15.25L16.4425 19.4425C16.7235 19.7219 17.1037 19.8787 17.5 19.8787C17.8963 19.8787 18.2765 19.7219 18.5575 19.4425L19.75 18.25L23.5 22V23.5ZM23.5 19.8775L20.8075 17.185C20.5265 16.9056 20.1463 16.7488 19.75 16.7488C19.3537 16.7488 18.9735 16.9056 18.6925 17.185L17.5 18.3775L13.3075 14.185C13.0265 13.9056 12.6463 13.7488 12.25 13.7488C11.8537 13.7488 11.4735 13.9056 11.1925 14.185L8.5 16.8775V8.5H23.5V19.8775Z" fill="white"/>
</svg>
