<svg width="129" height="173" viewBox="0 0 129 173" fill="none" xmlns="http://www.w3.org/2000/svg">
<g clip-path="url(#clip0_1008_233)">
<path d="M36.8197 119.793L36.9142 119.775C36.9142 119.469 36.9291 119.16 36.9291 118.849C36.8591 119.159 36.8225 119.475 36.8197 119.793Z" fill="#455D58"/>
<path d="M122.198 14.3096C122.55 14.5066 122.814 14.8294 122.935 15.2126C123.057 15.5957 123.028 16.0106 122.854 16.3732L110.37 39.8048C109.483 41.3791 108.419 42.4641 106.835 41.5842C105.249 40.7019 105.155 38.9719 106.042 37.3952L120.085 14.8286C120.305 14.4914 120.645 14.2499 121.038 14.1531C121.43 14.0563 121.845 14.1113 122.198 14.3071V14.3096Z" fill="#A2B062"/>
<path d="M127.409 0C127.409 0 124.538 2.57029 122.838 4.72043C121.62 6.25766 119.45 7.37227 120.155 12.2632C120.247 12.9382 120.466 13.5898 120.802 14.1835L123.009 15.57C124.784 15.0362 127.441 13.2048 128.17 10.4665C129.567 5.20977 127.409 0 127.409 0Z" fill="#E5C8CD"/>
<path d="M10.9678 100.059C5.56363 103.116 1.55152 109.497 7.39567 117.547C14.8258 127.781 35.386 116.064 38.5653 110.777C41.7447 105.491 41.69 104.105 38.2049 104.542C34.7198 104.979 32.3881 101.994 36.2312 97.7629C36.2312 97.7629 33.7727 94.8836 25.388 95.2618C19.0467 95.546 15.8002 97.3279 10.9678 100.059Z" fill="#9C2060"/>
<path d="M10.726 108.249C11.9952 108.177 12.9714 107.203 12.9064 106.075C12.8413 104.947 11.7597 104.091 10.4905 104.163C9.22131 104.235 8.24515 105.209 8.31019 106.337C8.37522 107.465 9.45684 108.321 10.726 108.249Z" fill="#A2B062"/>
<path d="M11.1431 115.502C12.4123 115.43 13.3885 114.456 13.3234 113.328C13.2584 112.2 12.1768 111.344 10.9076 111.416C9.63836 111.488 8.6622 112.462 8.72723 113.59C8.79227 114.718 9.87389 115.574 11.1431 115.502Z" fill="#E5C8CD"/>
<path d="M18.1396 118.795C19.4088 118.723 20.385 117.749 20.32 116.621C20.2549 115.493 19.1733 114.637 17.9041 114.709C16.6349 114.781 15.6587 115.755 15.7238 116.883C15.7888 118.011 16.8704 118.867 18.1396 118.795Z" fill="#A2B062"/>
<path d="M26.562 116.674C27.8312 116.601 28.8074 115.628 28.7424 114.5C28.6773 113.372 27.5957 112.515 26.3265 112.588C25.0573 112.66 24.0811 113.633 24.1462 114.762C24.2112 115.89 25.2928 116.746 26.562 116.674Z" fill="#E5C8CD"/>
<path d="M108.769 36.9677C99.3705 35.0128 95.0974 51.8605 95.0974 51.8605C95.0974 51.8605 79.126 62.9992 73.7442 62.7348C68.3624 62.4704 69.752 60.5105 69.752 60.5105C69.752 60.5105 82.1164 54.7793 82.3501 45.5658C82.5837 36.3523 76.3841 37.5534 76.3841 37.5534C76.3841 37.5534 76.3518 27.0918 75.6036 25.8512C75.6036 25.8512 79.4988 22.2676 82.4868 21.8697C82.4868 21.8697 74.8902 4.01612 54.6655 9.4755C34.4409 14.9349 29.519 25.1048 29.519 25.1048C29.519 25.1048 25.6461 22.6655 22.5761 23.6986C19.5062 24.7316 19.7423 28.7106 19.7423 28.7106C19.7423 28.7106 5.16051 29.0814 0.964455 44.3251C-3.2316 59.5689 7.58667 60.9455 10.5299 66.9758C13.4731 73.0061 12.3719 77.8995 12.3719 77.8995C12.3719 77.8995 25.9171 74.4766 25.2981 62.8608C24.6791 51.2451 17.2068 47.3477 22.8894 39.2538C22.8894 39.2538 24.7935 46.6409 29.2555 43.6381C29.2555 43.6381 35.5869 55.4194 41.9133 58.4073C48.2397 61.3953 56.2217 61.4546 56.2217 61.4546C56.2217 61.4546 51.2625 64.6675 46.3679 71.7876C39.2734 82.1133 36.1114 95.3354 36.1114 95.3354C34.4579 96.228 33.0526 97.5142 32.0215 99.0789C30.9903 100.644 30.3654 102.438 30.2026 104.302C29.9366 106.986 36.5961 107.445 40.0788 102.498C41.1101 101.027 41.7124 99.3021 41.8188 97.5127C41.8188 97.5127 47.7301 80.8899 50.8672 80.707C50.8672 80.707 47.6357 103.101 45.2592 110.522C41.6349 121.804 41.8089 144.331 41.8089 144.331C41.8089 144.331 45.831 144.067 51.2227 143.669L53.614 165.025C53.0774 166.138 52.9618 167.405 53.2884 168.596C53.6563 169.958 54.7998 171.668 56.4578 172.222C58.5384 172.914 61.504 172.963 64.845 169.871C66.5999 168.245 68.7974 167.269 69.9359 165.556C71.3429 163.443 70.4629 160.171 68.693 159.182C67.6987 158.629 66.2917 158.836 64.9171 159.326C65.2477 154.573 65.6007 147.71 65.8517 142.483C67.1717 142.362 68.4519 142.236 69.66 142.12L71.7704 164.011C71.7704 164.011 69.7147 169.842 72.4192 171.92C75.1238 173.999 78.3529 172.624 81.0674 171.228C83.5184 169.965 84.6669 169.468 86.7848 167.2C88.9027 164.931 89.4968 160.821 88.9648 159.951C88.2663 158.802 87.3093 158.078 84.6544 158.5C84.0552 158.613 83.4758 158.812 82.9342 159.091C83.061 153.78 83.1828 145.594 83.2425 139.604C88.9077 138.183 93.0938 136.747 93.0938 136.747C93.0938 136.747 85.9694 103.825 81.1494 94.4853C80.697 93.6054 80.2173 92.7108 79.7276 91.8136C79.5312 85.6845 76.6427 76.172 76.6427 76.172L90.4116 70.3987L90.0561 66.6273C98.2742 59.0524 100.153 55.8939 101.876 52.896C104.228 48.7984 102.769 51.339 104.29 48.8923C104.648 48.3165 105.167 47.4688 105.94 46.1985C108.518 41.9624 112.414 37.7239 108.769 36.9677Z" fill="#272B66"/>
</g>
<defs>
<clipPath id="clip0_1008_233">
<rect width="128.641" height="173" fill="white"/>
</clipPath>
</defs>
</svg>
