<svg width="123" height="176" viewBox="0 0 123 176" fill="none" xmlns="http://www.w3.org/2000/svg">
<path d="M120.881 60.9661H2.07124C1.19619 60.9661 0.486816 61.6745 0.486816 62.5484V173.93C0.486816 174.804 1.19619 175.512 2.07124 175.512H120.881C121.756 175.512 122.465 174.804 122.465 173.93V62.5484C122.465 61.6745 121.756 60.9661 120.881 60.9661Z" fill="#455D58"/>
<path d="M52.747 164.487L61.0424 145.04L61.0837 69.8383C61.0832 69.2327 60.8423 68.652 60.4137 68.2236C59.985 67.7952 59.4038 67.5541 58.7974 67.5532H45.6627L45.4115 67.5807C45.1545 67.6085 44.9054 67.6867 44.6787 67.8109C44.452 67.935 44.252 68.1026 44.0903 68.304L36.7479 77.5078C36.4797 77.8449 36.1387 78.1171 35.7505 78.3043C35.3622 78.4914 34.9366 78.5886 34.5055 78.5886C34.0744 78.5886 33.6488 78.4914 33.2605 78.3043C32.8722 78.1171 32.5313 77.8449 32.263 77.5078L24.9086 68.2903C24.7267 68.0597 24.4946 67.8736 24.2299 67.7459C23.9652 67.6182 23.6749 67.5523 23.381 67.5532H9.0369C8.51887 67.5541 8.02232 67.7601 7.65601 68.1259C7.28971 68.4917 7.08352 68.9876 7.08261 69.505L7.07057 116.874C7.07009 116.951 7.08507 117.027 7.11462 117.098C7.14418 117.169 7.1877 117.233 7.2426 117.286C7.35105 117.395 7.49821 117.457 7.65204 117.458C7.68468 117.461 7.71746 117.461 7.7501 117.458C12.4375 116.701 17.2146 116.68 21.9084 117.396C21.9302 117.398 21.952 117.398 21.9738 117.396C22.0862 117.396 22.1936 117.35 22.2726 117.27C22.3516 117.19 22.3957 117.083 22.3952 116.97V98.5646C22.3946 98.2629 22.488 97.9686 22.6625 97.7225C22.837 97.4763 23.084 97.2905 23.3691 97.191C23.6541 97.0914 23.9632 97.083 24.2533 97.1669C24.5434 97.2508 24.8001 97.4228 24.9878 97.6591L32.977 107.677C33.159 107.905 33.3899 108.09 33.6527 108.217C33.9156 108.345 34.2036 108.412 34.4958 108.413C34.7879 108.415 35.0766 108.351 35.3408 108.226C35.6049 108.101 35.8377 107.919 36.022 107.693L43.2886 97.7588C43.3998 97.6045 43.546 97.4788 43.7153 97.3919C43.8846 97.305 44.072 97.2594 44.2623 97.2588C44.4232 97.2563 44.583 97.286 44.7322 97.3461C44.8814 97.4063 45.017 97.4957 45.1311 97.6091C45.2451 97.7225 45.3352 97.8576 45.3961 98.0063C45.4569 98.1551 45.4873 98.3145 45.4855 98.4752V150.172L23.3827 122.461C22.9283 121.889 22.2759 121.508 21.554 121.393C16.9816 120.671 12.3208 120.713 7.76214 121.516C7.56852 121.551 7.39346 121.654 7.26764 121.805C7.14182 121.956 7.07327 122.146 7.07401 122.343L7.08605 167.313C7.08651 167.741 7.25666 168.15 7.55919 168.453C7.86171 168.755 8.27189 168.925 8.69972 168.925L20.914 168.899C21.3052 168.898 21.68 168.742 21.9563 168.465C22.2325 168.189 22.3879 167.814 22.3884 167.423V145.604L41.1313 168.233C41.3132 168.448 41.5407 168.62 41.7975 168.737C42.0543 168.854 42.3339 168.912 42.616 168.908L52.6076 168.918C52.099 167.476 52.1487 165.895 52.747 164.487Z" fill="white"/>
<path d="M58.4206 168.925C58.0823 168.926 57.7492 168.843 57.4509 168.683C57.1526 168.524 56.8984 168.294 56.711 168.012C56.5236 167.731 56.4088 167.408 56.3769 167.072C56.345 166.735 56.397 166.396 56.5282 166.085L73.3874 126.569C73.4034 126.551 73.4229 126.536 73.4449 126.526C73.4668 126.516 73.4906 126.511 73.5147 126.511C73.5391 126.511 73.5631 126.516 73.5853 126.526C77.6723 128.258 82.0672 129.148 86.5067 129.143C86.751 129.143 86.9935 129.143 87.2378 129.143C91.2607 129.063 95.2349 128.248 98.9636 126.738C99.0051 126.72 99.0521 126.719 99.0943 126.735C99.1364 126.752 99.1705 126.784 99.1889 126.825L115.778 166.112C115.904 166.422 115.952 166.759 115.917 167.091C115.883 167.424 115.767 167.743 115.58 168.021C115.393 168.298 115.141 168.526 114.846 168.684C114.55 168.841 114.221 168.924 113.886 168.925H58.4206ZM86.5531 136.728C86.2867 136.725 86.0255 136.802 85.8036 136.95C85.5818 137.097 85.4095 137.308 85.3093 137.555L78.7514 153.217C78.6659 153.421 78.6323 153.644 78.6536 153.864C78.6748 154.085 78.7503 154.297 78.8734 154.482C78.9964 154.666 79.1632 154.818 79.3589 154.923C79.5546 155.027 79.7732 155.082 79.9952 155.082H93.2417C93.4646 155.082 93.6839 155.027 93.8802 154.922C94.0764 154.816 94.2434 154.664 94.3663 154.478C94.4892 154.292 94.564 154.079 94.5843 153.858C94.6045 153.636 94.5694 153.413 94.4821 153.208L87.8004 137.546C87.6982 137.301 87.5247 137.092 87.3024 136.946C87.0801 136.8 86.8191 136.724 86.5531 136.728Z" fill="white"/>
<path d="M86.5221 125.076C78.4108 125.076 70.9635 121.702 65.4584 115.819C65.2382 115.587 65.1151 115.28 65.1144 114.96V77.7139C65.1151 77.3942 65.2382 77.0869 65.4584 76.8549C70.9635 70.9722 78.4108 67.5979 86.5221 67.5979C102.595 67.5979 115.673 80.4835 115.673 96.3362C115.673 112.189 102.595 125.076 86.5221 125.076ZM86.7389 83.4644C79.4912 83.4644 73.5956 89.2818 73.5956 96.4307C73.5956 103.58 79.4912 109.397 86.7389 109.397C93.9866 109.397 99.8839 103.581 99.8839 96.4307C99.8839 89.2801 93.9866 83.4661 86.7389 83.4661V83.4644Z" fill="white"/>
<path d="M43.3075 55.1881C44.4378 55.7894 45.6575 56.1983 46.5005 55.81C48.761 54.7654 44.7595 49.85 42.0276 49.4188C39.9322 49.0889 36.3178 44.6563 35.0465 43.1547C33.7752 41.6531 30.7663 37.0314 29.0254 36.2222C27.2844 35.413 26.0853 34.9714 26.0853 34.9714L26.493 33.3307C26.493 33.3307 31.0915 34.7051 34.0986 33.4286C37.1057 32.1521 38.0038 30.7037 38.2085 27.661C38.3031 26.2539 38.3616 24.2816 37.5616 23.2146C39.3267 22.7989 39.6742 18.325 39.6742 18.325C40.9111 17.5879 43.2697 18.6926 43.2697 18.6926C43.3195 18.6978 43.3699 18.693 43.4178 18.6785C43.4657 18.6639 43.5102 18.6399 43.5487 18.6079C43.5872 18.5758 43.6189 18.5364 43.6419 18.492C43.6649 18.4475 43.6787 18.3989 43.6826 18.349C43.7823 17.1464 43.9957 15.6001 43.1441 13.9336C42.6695 13.0269 41.9976 12.2379 41.1778 11.6245H43.1957C43.2635 11.6246 43.3298 11.6039 43.3854 11.5652C43.4411 11.5265 43.4834 11.4715 43.5067 11.4079C43.5301 11.3443 43.5332 11.275 43.5157 11.2096C43.4982 11.1441 43.461 11.0856 43.409 11.042C42.6951 10.439 41.5167 9.52498 40.4845 9.08171C39.3078 8.57831 38.4648 8.50272 38.0915 8.49756C38.6764 8.48038 40.3279 8.43571 41.4392 8.44602C41.5017 8.44659 41.5626 8.42683 41.6128 8.38973C41.663 8.35263 41.6997 8.30021 41.7174 8.24041C41.7351 8.18061 41.7328 8.11668 41.7108 8.0583C41.6889 7.99992 41.6485 7.95026 41.5958 7.91685C39.5933 6.66437 34.3704 3.96527 28.917 5.9634C21.9755 8.50444 15.1836 15.7822 15.6877 22.7147C16.1917 29.6471 19.6616 31.9442 19.6616 31.9442L18.8531 33.5729C18.8531 33.5729 11.1116 36.2944 10.7555 50.094C10.3994 63.8936 15.0357 65.3351 15.0357 65.3351H28.6847C28.6847 65.3351 34.5855 62.4556 35.6263 60.7186C35.6263 60.7186 39.5589 65.6821 42.4508 65.3351C45.3427 64.988 49.5042 65.3523 49.5042 65.3523L50.7221 60.009C50.7221 60.009 45.5887 56.9354 43.3075 55.1881ZM28.382 52.9546C28.3416 52.9634 28.2995 52.9604 28.2608 52.9458C28.2222 52.9312 28.1886 52.9057 28.1642 52.8723C28.1398 52.839 28.1256 52.7994 28.1233 52.7582C28.121 52.7169 28.1308 52.676 28.1514 52.6402C28.4955 52.0715 29.4761 49.5098 29.4864 48.0289C29.4864 47.3416 36.5587 50.807 36.5587 50.807C37.3263 51.1653 38.073 51.5669 38.7951 52.0096C36.1836 52.1402 30.51 52.4838 28.3854 52.9529L28.382 52.9546Z" fill="#455D58"/>
<path d="M58.9006 54.3875H48.9417C48.7573 54.3875 48.6079 54.5367 48.6079 54.7208V62.8696C48.6079 63.0537 48.7573 63.2029 48.9417 63.2029H58.9006C59.085 63.2029 59.2344 63.0537 59.2344 62.8696V54.7208C59.2344 54.5367 59.085 54.3875 58.9006 54.3875Z" fill="#A2B062"/>
<path d="M60.2167 45.0652H50.2577C50.0734 45.0652 49.924 45.2144 49.924 45.3985V53.5473C49.924 53.7314 50.0734 53.8806 50.2577 53.8806H60.2167C60.401 53.8806 60.5504 53.7314 60.5504 53.5473V45.3985C60.5504 45.2144 60.401 45.0652 60.2167 45.0652Z" fill="#9C2060"/>
<path d="M58.5032 35.7446H48.5442C48.3599 35.7446 48.2104 35.8939 48.2104 36.0779V44.2268C48.2104 44.4109 48.3599 44.5601 48.5442 44.5601H58.5032C58.6875 44.5601 58.8369 44.4109 58.8369 44.2268V36.0779C58.8369 35.8939 58.6875 35.7446 58.5032 35.7446Z" fill="#E5C8CD"/>
<path d="M61.0579 26.3569H51.0989C50.9146 26.3569 50.7651 26.5062 50.7651 26.6902V34.8391C50.7651 35.0232 50.9146 35.1724 51.0989 35.1724H61.0579C61.2422 35.1724 61.3916 35.0232 61.3916 34.8391V26.6902C61.3916 26.5062 61.2422 26.3569 61.0579 26.3569Z" fill="#A2B062"/>
<path d="M74.7104 31.1162H64.7515C64.5671 31.1162 64.4177 31.2654 64.4177 31.4495V40.0708C64.4177 40.2549 64.5671 40.4041 64.7515 40.4041H74.7104C74.8948 40.4041 75.0442 40.2549 75.0442 40.0708V31.4495C75.0442 31.2654 74.8948 31.1162 74.7104 31.1162Z" fill="#9C2060"/>
<path d="M111.668 18.5723C114.92 16.466 114.765 12.4903 114.565 10.908C114.557 10.8434 114.532 10.782 114.493 10.7297C114.454 10.6774 114.403 10.6359 114.343 10.6092C114.283 10.5825 114.218 10.5714 114.153 10.5771C114.088 10.5828 114.026 10.6051 113.972 10.6417C113.179 11.1863 111.429 11.901 108.885 10.2345C105.324 7.90308 105.434 2.34166 100.648 1.34002C95.8618 0.338379 93.5239 5.23147 93.5239 5.23147C93.5239 5.23147 89.285 3.29347 85.1752 4.00819C80.5784 4.80882 76.269 7.78797 74.2648 12.6793C72.8783 16.0674 73.9466 19.2957 74.7345 20.9605C74.7721 21.0378 74.8327 21.1017 74.9079 21.1435C74.9831 21.1852 75.0694 21.2029 75.155 21.1941C75.2406 21.1853 75.3215 21.1504 75.3866 21.0942C75.4517 21.0379 75.4979 20.9631 75.519 20.8797C75.9783 19.0465 77.3821 17.3491 77.3821 17.3491C77.4998 18.5348 77.801 19.6951 78.2749 20.7887C79.0542 22.5669 82.7357 24.7901 82.7357 24.7901C82.7357 24.7901 80.2567 27.4634 81.2098 30.4889C83.3172 37.1894 92.1889 33.0867 92.1889 33.0867C92.1889 33.0867 89.8975 36.9902 88.8498 39.4659C88.6605 39.9126 88.4507 40.3387 88.227 40.7476C86.3983 39.9796 82.7787 38.4608 81.6416 38.0244C81.0447 37.7942 80.2258 37.509 80.0039 37.442C79.9677 37.4288 79.9356 37.4063 79.911 37.3767C79.6839 37.0898 78.4091 35.5418 76.8797 34.7085L75.4914 33.9526C75.4602 33.9356 75.425 33.927 75.3894 33.9276C75.3539 33.9283 75.3191 33.9383 75.2885 33.9565C75.2579 33.9747 75.2326 34.0005 75.2151 34.0315C75.1976 34.0625 75.1885 34.0974 75.1887 34.133V34.7154C75.1888 34.7435 75.183 34.7714 75.1717 34.7972C75.1605 34.823 75.144 34.8461 75.1233 34.8652C75.1025 34.8843 75.0781 34.8988 75.0514 34.9079C75.0248 34.9171 74.9965 34.9205 74.9685 34.9181C74.2562 34.8632 72.0645 34.767 72.1919 35.6844C72.3192 36.6019 74.1599 36.9627 74.7723 37.0589C74.8246 37.067 74.8716 37.0949 74.9037 37.1369C74.9357 37.1788 74.9503 37.2315 74.9444 37.2839L74.6622 39.7958C74.6572 39.8355 74.6407 39.8729 74.6147 39.9034C74.5888 39.9339 74.5545 39.9562 74.516 39.9676L73.2963 40.3232C73.2567 40.3348 73.2216 40.3581 73.1954 40.39C73.1693 40.4218 73.1535 40.4609 73.1499 40.5019C73.1464 40.543 73.1554 40.5841 73.1756 40.62C73.1959 40.6558 73.2266 40.6848 73.2636 40.7029C73.9036 41.0087 75.1044 41.4984 76.1882 41.464C76.8608 41.4417 77.7365 41.0637 78.0564 40.9125C78.0943 40.8943 78.137 40.8884 78.1784 40.8958C78.2198 40.9032 78.2578 40.9235 78.287 40.9538L83.7628 45.7008L83.6165 45.8022C82.3435 46.6492 79.1437 47.0048 76.9709 47.1492C75.5655 47.2435 74.2526 47.8822 73.3118 48.9291C73.3118 48.9291 71.2474 50.4616 72.185 52.1505C73.1225 53.8394 75.5224 52.8343 75.5224 52.8343C75.7753 52.9511 77.2634 51.5904 77.8156 50.6008C78.4607 50.7726 79.7406 51.3997 81.2563 51.8429C79.9436 51.9185 78.8082 52.0319 78.041 52.2536C75.0923 53.1126 70.112 57.6982 68.7254 59.0142C68.6099 59.1242 68.4695 59.2047 68.3161 59.249C68.1628 59.2933 68.0011 59.2999 67.8446 59.2685C66.6696 59.0348 63.8001 58.4232 62.5993 57.8115C61.0717 57.0333 59.6747 58.2565 60.2304 60.1516C60.7861 62.0466 62.5993 63.1994 62.5993 63.1994H73.7006C75.7426 63.1994 79.6976 61.2597 81.215 60.4746C81.4041 60.3764 81.613 60.3223 81.826 60.3164C82.0391 60.3104 82.2507 60.3528 82.445 60.4402C84.7141 61.4608 90.3705 63.7046 90.3705 63.7046L109.21 63.1994C109.21 63.1994 110.908 61.8954 111.446 59.1465C112.907 51.5526 109.776 44.0274 106.547 37.1345C103.622 30.8893 100.698 30.0285 100.182 29.9185C100.526 29.5973 101.861 27.6679 102.869 25.68C103.91 23.6287 104.221 20.2836 104.125 20.019C104.424 20.1272 107.749 21.11 111.668 18.5723ZM93.4138 50.1455C93.3071 51.1042 90.331 51.3997 87.1897 51.5801C90.3792 49.8534 92.5967 45.9516 92.5967 45.9516C92.6136 45.9361 92.6341 45.925 92.6563 45.9191C92.6786 45.9133 92.7019 45.913 92.7243 45.9183C92.7467 45.9235 92.7675 45.9342 92.7848 45.9493C92.8021 45.9644 92.8155 45.9835 92.8237 46.0049C93.0371 46.5598 93.6202 48.2779 93.4138 50.1455Z" fill="#455D58"/>
</svg>
