<svg width="23" height="24" viewBox="0 0 23 24" fill="none" xmlns="http://www.w3.org/2000/svg">
<g clip-path="url(#clip0_797_236)">
<path d="M9.19989 23.7851C9.58625 23.7762 9.95701 23.631 10.2466 23.3751C10.5362 23.1191 10.7259 22.7691 10.7823 22.3867H7.55615C7.6141 22.7794 7.81272 23.1378 8.11508 23.395C8.41745 23.6522 8.80295 23.7909 9.19989 23.7851Z" fill="#333333" fill-opacity="0.5"/>
<path d="M18.0996 19.829C17.5081 19.3018 16.9903 18.6973 16.5601 18.032C16.0904 17.1135 15.8089 16.1105 15.7321 15.0818V12.052C15.7296 11.6839 15.6968 11.3167 15.634 10.9541C15.1512 10.8576 14.6873 10.6836 14.2601 10.4389C14.4229 10.9632 14.5056 11.5091 14.5054 12.0581V15.088C14.5806 16.3429 14.9258 17.5667 15.5174 18.676C15.9409 19.347 16.4433 19.9647 17.014 20.516H1.3065C1.87715 19.9647 2.37958 19.347 2.80303 18.676C3.39466 17.5667 3.73985 16.3429 3.81503 15.088V12.052C3.8118 11.3421 3.94862 10.6387 4.21765 9.98179C4.48667 9.32493 4.88263 8.72758 5.38284 8.22395C5.88305 7.72032 6.47769 7.3203 7.13271 7.04681C7.78773 6.77331 8.49027 6.63171 9.2001 6.6301C10.2389 6.63093 11.2545 6.93815 12.1196 7.5133C12.0242 7.16308 11.9707 6.80279 11.9601 6.43997V6.05357C11.3197 5.73853 10.6317 5.53131 9.92383 5.44023V4.66743C9.92383 4.45027 9.83756 4.24201 9.68401 4.08845C9.53045 3.9349 9.32219 3.84863 9.10503 3.84863C8.88787 3.84863 8.6796 3.9349 8.52605 4.08845C8.37249 4.24201 8.28623 4.45027 8.28623 4.66743V5.4709C6.7012 5.69449 5.25058 6.48397 4.20218 7.69358C3.15377 8.90319 2.57838 10.4513 2.58223 12.052V15.0818C2.50541 16.1105 2.22391 17.1135 1.75423 18.032C1.33157 18.6958 0.822081 19.3002 0.239295 19.829C0.173872 19.8865 0.121438 19.9573 0.0854817 20.0366C0.0495257 20.1159 0.030872 20.2019 0.0307617 20.289V21.1232C0.0307617 21.2858 0.0953806 21.4418 0.210403 21.5569C0.325425 21.6719 0.481429 21.7365 0.644095 21.7365H17.6948C17.8574 21.7365 18.0134 21.6719 18.1285 21.5569C18.2435 21.4418 18.3081 21.2858 18.3081 21.1232V20.289C18.308 20.2019 18.2893 20.1159 18.2534 20.0366C18.2174 19.9573 18.165 19.8865 18.0996 19.829Z" fill="#333333" fill-opacity="0.5"/>
<path d="M18.3998 9.2C20.9403 9.2 22.9998 7.14051 22.9998 4.6C22.9998 2.05949 20.9403 0 18.3998 0C15.8593 0 13.7998 2.05949 13.7998 4.6C13.7998 7.14051 15.8593 9.2 18.3998 9.2Z" fill="#EB5757"/>
</g>
<defs>
<clipPath id="clip0_797_236">
<rect width="23" height="23.92" fill="white"/>
</clipPath>
</defs>
</svg>
