<svg width="7" height="7" viewBox="0 0 7 7" fill="none" xmlns="http://www.w3.org/2000/svg">
<path d="M0.744531 7C0.680531 7 0.620531 6.976 0.564531 6.928C0.516531 6.88 0.492531 6.82 0.492531 6.748C0.492531 6.724 0.496531 6.696 0.504531 6.664C0.520531 6.624 0.544531 6.58 0.576531 6.532L2.66453 3.808L0.708531 1.228C0.676531 1.18 0.652531 1.14 0.636531 1.108C0.628531 1.076 0.624531 1.044 0.624531 1.012C0.624531 0.94 0.648531 0.88 0.696531 0.832C0.744531 0.784 0.804531 0.76 0.876531 0.76H1.48853C1.57653 0.76 1.64053 0.784 1.68053 0.832C1.72853 0.872 1.76853 0.912 1.80053 0.952L3.39653 3.028L4.99253 0.964C5.02453 0.924 5.06053 0.88 5.10053 0.832C5.14853 0.784 5.21653 0.76 5.30453 0.76H5.89253C5.96453 0.76 6.02453 0.784 6.07253 0.832C6.12053 0.88 6.14453 0.94 6.14453 1.012C6.14453 1.044 6.13653 1.076 6.12053 1.108C6.11253 1.14 6.09253 1.18 6.06053 1.228L4.08053 3.832L6.16853 6.532C6.20053 6.58 6.22053 6.62 6.22853 6.652C6.24453 6.684 6.25253 6.716 6.25253 6.748C6.25253 6.82 6.22853 6.88 6.18053 6.928C6.13253 6.976 6.07253 7 6.00053 7H5.36453C5.28453 7 5.22053 6.98 5.17253 6.94C5.12453 6.9 5.08453 6.86 5.05253 6.82L3.36053 4.624L1.66853 6.82C1.63653 6.852 1.59653 6.892 1.54853 6.94C1.50853 6.98 1.44453 7 1.35653 7H0.744531Z" fill="#333333"/>
</svg>
